if (_typeface_js && _typeface_js.loadFace) _typeface_js.loadFace({"glyphs":{"0":{"ha":838,"x_min":52,"x_max":774,"o":"m 413 1044 q 692 841 578 996 q 774 575 774 712 l 774 529 q 535 71 774 298 q 421 0 439 0 l 397 0 q 163 163 298 24 q 52 480 52 290 l 52 496 q 348 1001 52 766 q 413 1044 354 1003 m 286 884 q 185 594 185 738 l 185 562 q 421 195 185 347 q 541 152 509 152 q 627 323 613 237 q 641 434 641 361 q 318 879 641 759 q 286 884 288 884 z "},"1":{"ha":688,"x_min":148,"x_max":609,"o":"m 327 1042 q 438 952 399 1019 q 460 670 460 928 l 460 665 q 454 179 460 583 q 503 130 454 154 l 509 127 q 514 144 509 144 q 519 130 514 139 q 579 174 574 174 q 587 176 585 176 q 609 149 609 169 q 422 0 532 77 l 414 0 q 232 117 364 17 q 281 182 262 161 l 286 822 q 229 898 286 860 l 224 898 q 170 871 178 871 l 167 871 q 148 895 157 874 q 327 1042 261 1003 z "},"2":{"ha":831,"x_min":77,"x_max":791,"o":"m 408 1042 q 766 827 440 1042 q 772 779 772 814 l 772 746 q 403 309 772 509 q 264 209 321 254 q 213 157 213 161 l 216 157 q 479 201 340 201 l 492 201 q 791 146 642 201 l 791 144 l 661 0 l 658 0 q 519 41 637 0 q 395 54 456 52 q 96 0 280 54 l 88 0 q 77 11 84 0 q 205 236 87 99 q 452 472 205 239 q 587 754 587 618 l 587 779 q 522 928 587 871 q 224 697 413 854 q 107 800 197 710 q 408 1042 205 887 z "},"3":{"ha":787,"x_min":56,"x_max":759,"o":"m 355 1042 q 721 879 549 966 q 724 841 721 858 q 626 624 724 718 q 528 562 531 567 q 721 434 667 509 q 759 336 759 374 l 759 269 q 610 84 759 182 q 357 0 545 44 q 224 95 333 3 q 56 233 117 175 q 162 342 59 248 q 238 296 187 342 q 493 98 488 98 q 545 138 515 98 q 566 247 566 189 l 566 277 q 433 510 566 431 q 311 532 373 532 l 233 532 q 227 559 231 559 l 230 564 l 230 581 q 479 686 393 581 q 528 857 528 759 q 485 936 528 936 l 477 936 q 371 868 455 936 q 224 765 365 866 l 222 765 q 121 863 212 767 q 355 1042 213 945 z "},"4":{"ha":819,"x_min":29,"x_max":756,"o":"m 447 1042 q 547 985 491 1039 q 577 846 577 947 q 580 749 580 819 l 580 610 q 585 472 580 529 q 667 469 640 469 l 726 469 q 756 342 734 469 l 756 339 q 737 328 752 328 l 618 328 q 583 317 583 328 q 580 266 580 288 l 580 228 q 588 171 580 171 q 659 144 630 144 l 664 144 q 702 165 675 144 l 707 165 q 729 141 729 165 q 539 0 551 4 q 360 106 463 38 q 412 193 412 184 l 412 293 l 409 326 q 368 328 382 328 q 59 331 283 328 q 29 477 32 454 q 447 1042 50 509 m 81 477 l 81 475 l 140 475 q 273 472 208 475 l 409 477 l 409 730 q 379 871 409 871 q 376 873 379 873 l 374 873 q 81 477 203 660 z "},"5":{"ha":766,"x_min":52,"x_max":722,"o":"m 486 1036 l 538 1036 q 660 1031 612 1036 q 608 884 614 907 q 421 876 523 876 l 416 876 q 245 879 359 876 q 223 876 235 876 q 166 545 199 795 q 380 686 226 572 q 467 741 462 741 q 692 556 637 671 q 722 434 722 494 l 722 372 q 603 125 722 241 q 353 0 502 38 l 342 0 q 52 160 52 157 l 52 168 q 117 247 52 182 q 155 290 117 250 q 462 130 236 252 q 492 111 492 118 l 494 111 q 532 144 494 115 q 581 293 581 203 l 581 298 q 421 548 581 464 q 332 583 367 583 l 323 583 q 234 532 299 583 q 112 453 186 498 l 109 453 q 201 1028 158 811 q 486 1036 345 1036 z "},"6":{"ha":802,"x_min":52,"x_max":755,"o":"m 443 1039 q 711 903 559 999 l 711 901 q 606 773 705 878 l 603 773 q 334 906 529 803 q 210 532 210 734 q 212 496 212 519 q 508 665 305 542 q 551 689 551 687 q 739 526 691 631 q 755 458 755 489 l 755 377 q 641 163 755 296 q 522 73 565 95 q 410 0 435 0 l 372 0 q 321 27 362 0 q 155 149 256 46 q 52 426 52 265 l 52 458 q 315 947 52 713 l 443 1039 m 220 442 l 220 439 q 351 225 220 334 q 508 144 469 144 q 530 136 508 140 q 616 317 616 204 q 492 513 616 436 q 418 551 457 551 q 272 469 372 551 q 220 442 233 442 z "},"7":{"ha":819,"x_min":65,"x_max":770,"o":"m 212 1034 q 770 1023 684 1023 l 770 977 q 521 627 585 779 q 385 146 426 456 q 369 65 385 65 q 160 0 271 30 l 160 3 q 600 863 160 392 l 600 865 q 594 868 594 865 l 567 865 l 551 865 q 326 879 516 865 q 109 757 155 879 q 95 746 106 746 q 65 749 77 749 l 65 751 q 212 1034 65 781 z "},"8":{"ha":783,"x_min":52,"x_max":733,"o":"m 383 1047 q 682 911 611 1047 q 698 844 693 888 q 581 648 698 743 q 568 640 572 640 l 568 637 q 690 534 652 583 q 733 426 733 483 l 733 358 q 489 46 733 218 q 416 0 431 0 l 345 0 q 96 111 203 0 q 52 222 52 168 l 52 250 q 188 486 52 352 q 71 629 71 550 l 71 659 q 315 1044 71 828 q 383 1047 326 1044 m 188 787 q 248 684 188 712 q 462 656 266 665 q 497 648 462 653 q 570 762 570 709 l 570 781 q 475 868 570 835 q 318 884 391 884 q 215 868 215 884 q 188 787 188 821 m 250 469 q 174 339 174 393 q 264 212 174 257 q 446 168 355 168 l 454 168 q 652 277 610 168 l 654 296 q 551 423 654 364 q 307 461 501 448 l 250 469 z "},"9":{"ha":795,"x_min":52,"x_max":736,"o":"m 391 1039 q 608 909 545 987 q 692 798 670 848 q 736 629 736 701 l 736 524 q 649 263 736 415 q 508 103 610 200 q 370 0 387 0 q 101 141 245 54 q 207 274 101 153 q 465 141 461 141 q 581 483 581 319 q 578 532 578 515 q 261 342 377 414 q 90 480 153 378 q 52 621 52 554 q 139 846 52 735 q 356 1017 283 986 l 391 1039 m 269 892 q 193 732 193 821 l 193 705 q 345 502 193 610 q 391 483 387 483 q 530 562 420 505 q 570 591 566 591 q 505 738 534 715 q 375 852 446 814 q 269 892 321 882 z "}," ":{"ha":345,"x_min":0,"x_max":0,"o":""},"!":{"ha":488,"x_min":152,"x_max":423,"o":"m 290 1168 q 423 1021 328 1131 l 423 1017 q 372 835 423 986 q 307 319 307 508 q 288 309 296 309 l 263 312 q 182 923 263 575 q 152 1023 152 1015 q 271 1149 157 1023 l 290 1168 m 277 249 q 396 117 304 238 l 282 -3 l 274 -3 q 165 114 249 12 l 165 117 q 277 249 168 132 z "},"\"":{"ha":543,"x_min":49,"x_max":487,"o":"m 198 1150 q 217 1131 217 1150 q 203 1066 203 1086 q 239 968 203 1049 q 247 928 247 947 l 247 909 q 163 800 247 873 q 106 770 119 770 l 73 770 q 65 787 65 773 q 81 838 81 829 l 81 849 q 49 952 81 869 l 49 993 q 187 1150 49 1089 l 198 1150 m 438 1194 q 457 1175 457 1194 q 444 1110 444 1131 q 479 1013 444 1093 q 487 972 487 991 l 487 953 q 403 844 487 918 q 346 814 359 814 l 313 814 q 305 831 305 817 q 321 882 321 873 l 321 893 q 289 996 321 913 l 289 1037 q 427 1194 289 1133 l 438 1194 z "},"#":{"ha":1245,"x_min":26,"x_max":1136,"o":"m 399 1315 q 470 1234 438 1299 q 489 1103 489 1200 q 491 971 491 1042 l 628 971 q 660 969 638 971 q 662 1071 660 981 q 621 1162 662 1124 l 585 1133 l 581 1133 q 566 1159 572 1133 q 688 1315 612 1228 q 760 1234 728 1299 q 779 1103 779 1200 q 781 969 781 1041 l 899 969 q 983 1008 947 969 l 983 1013 q 956 1044 956 1042 l 956 1046 q 980 1063 958 1063 q 1134 945 1029 1035 l 1136 941 q 1057 871 1121 901 q 892 850 1028 850 q 783 848 798 848 q 781 764 781 791 l 781 680 l 899 680 q 983 719 947 680 l 983 723 q 956 755 956 752 l 956 756 q 980 773 958 773 q 1134 655 1029 745 l 1136 651 q 1057 582 1121 612 q 918 563 1034 563 q 779 559 918 561 l 779 557 q 777 408 779 506 q 817 342 777 367 l 817 359 q 822 347 820 359 q 852 382 836 358 q 865 393 860 391 l 867 393 q 886 369 880 393 l 886 367 q 752 205 854 319 l 751 205 q 627 328 735 210 l 625 332 q 659 407 659 403 l 659 559 l 611 559 q 489 561 572 559 l 489 559 q 487 408 489 505 q 527 342 487 367 l 527 359 q 532 347 530 359 q 562 382 547 358 q 576 393 570 391 l 577 393 q 596 369 591 393 l 596 367 q 463 205 565 319 l 461 205 q 337 328 446 210 l 335 332 q 369 407 369 403 l 369 563 l 226 563 q 165 525 188 563 l 180 525 l 180 522 q 170 516 170 520 l 213 480 q 216 469 216 474 q 190 456 201 456 q 26 589 148 479 q 153 717 30 604 l 222 683 q 316 682 287 682 l 370 682 l 370 852 l 226 852 q 165 814 188 852 l 180 814 l 180 811 q 170 806 170 810 l 213 770 q 216 758 216 764 q 190 745 201 745 q 26 879 148 769 q 153 1006 30 893 l 222 972 q 316 971 287 971 l 370 971 q 372 1071 372 1056 q 331 1162 372 1124 l 296 1133 l 292 1133 q 277 1159 283 1133 q 399 1315 323 1228 m 493 850 q 491 762 491 791 l 491 682 l 628 682 q 660 680 638 682 l 660 848 l 606 848 q 493 850 568 848 z "},"$":{"ha":750,"x_min":4,"x_max":636,"o":"m 330 1320 q 396 1200 354 1320 q 410 969 410 1144 q 467 962 448 962 l 489 962 q 629 1014 568 962 l 636 1014 l 636 1000 q 538 838 636 928 q 415 793 477 793 l 413 793 l 413 610 q 472 579 413 608 q 612 385 612 481 l 612 377 q 546 159 612 288 q 422 2 515 96 l 413 -1 q 441 -50 423 -35 l 441 -29 l 446 -29 q 448 -45 446 -36 q 481 16 451 -45 l 489 21 q 503 -15 498 21 q 385 -248 458 -127 q 273 -69 339 -189 q 303 42 303 34 q 165 71 231 71 q 37 14 70 71 q 7 -5 20 -5 l 4 -5 q 64 128 10 50 q 161 214 129 214 q 244 230 202 230 q 303 223 287 228 l 303 437 q 83 572 176 486 q 56 646 56 610 q 260 1017 56 753 q 284 1026 279 1026 l 296 1026 l 301 1024 l 301 1026 q 273 1107 301 1048 l 270 1107 l 239 1067 l 235 1064 q 222 1100 222 1078 q 328 1320 261 1197 l 330 1320 m 192 779 l 192 767 q 249 682 192 732 q 303 653 287 653 q 306 674 306 666 l 306 808 l 246 843 q 230 857 246 845 q 192 779 192 829 m 410 385 l 410 228 q 408 192 410 216 l 477 166 q 513 258 513 216 q 410 385 513 332 z "},"%":{"ha":989,"x_min":0,"x_max":882,"o":"m 774 1246 l 777 1246 q 785 1194 785 1219 q 697 973 785 1090 q 185 210 575 776 q 163 150 163 179 l 163 139 l 165 117 l 168 117 q 176 130 172 117 l 181 130 l 181 128 q 176 115 176 121 l 176 113 l 238 139 l 250 139 l 252 128 q 218 88 252 98 q 14 0 149 51 l 11 0 q 0 212 0 74 q 102 302 92 273 q 593 1030 562 977 q 609 1107 609 1077 l 609 1121 l 602 1121 l 558 1109 q 551 1112 554 1112 l 551 1121 q 585 1160 551 1151 q 774 1246 753 1246 m 165 1222 q 273 1156 212 1216 q 333 1004 333 1090 l 333 988 q 214 768 333 871 q 168 741 178 741 l 163 741 q 35 836 100 756 q 0 958 0 890 l 0 975 q 161 1220 0 1107 l 165 1222 m 108 1149 q 62 1017 62 1082 l 62 1000 q 155 843 62 910 q 225 812 196 816 q 271 944 271 864 q 113 1149 271 1096 l 108 1149 m 715 512 q 823 446 762 506 q 882 294 882 380 l 882 278 q 764 58 882 161 q 717 31 728 31 l 713 31 q 585 125 650 45 q 549 247 549 180 l 549 264 q 710 509 549 396 l 715 512 m 657 439 q 611 307 611 371 l 611 289 q 704 132 611 200 q 774 102 745 105 q 821 234 821 154 q 662 439 821 385 l 657 439 z "},"&":{"ha":1128,"x_min":8,"x_max":1126,"o":"m 621 1131 q 749 1036 686 1116 q 781 939 781 983 l 781 914 q 640 713 781 798 l 543 640 q 686 377 585 545 l 697 377 q 833 472 710 377 q 925 537 840 475 l 941 537 q 1085 469 1027 469 q 1118 475 1113 472 l 1126 464 l 1126 453 q 1023 374 1126 420 q 968 369 984 369 l 966 369 q 846 420 916 369 l 841 420 q 716 331 730 339 q 890 141 794 171 q 960 133 921 133 q 1090 187 1018 133 q 1112 160 1109 187 q 1012 38 1085 79 q 863 3 930 3 q 684 76 774 3 q 581 203 618 135 q 572 222 581 209 q 288 27 486 173 q 244 0 248 0 q 22 309 115 155 q 8 336 8 330 q 358 581 330 557 q 255 781 333 652 q 225 884 225 834 q 263 949 225 935 q 529 1085 340 1005 l 621 1131 m 388 917 q 469 760 395 890 q 510 689 507 689 l 515 689 q 594 746 530 689 q 643 860 643 789 q 562 996 643 956 q 518 1004 544 1004 l 507 1004 q 393 939 426 1004 q 388 917 388 922 m 165 385 q 347 130 168 385 q 543 271 420 168 q 388 534 398 524 l 385 534 q 165 385 257 467 z "},"'":{"ha":340,"x_min":53,"x_max":251,"o":"m 202 1158 q 221 1139 221 1158 q 208 1074 208 1095 q 243 977 208 1057 q 251 936 251 955 l 251 917 q 167 808 251 882 q 110 779 123 779 l 77 779 q 69 795 69 781 q 85 846 85 837 l 85 857 q 53 960 85 877 l 53 1001 q 191 1158 53 1097 l 202 1158 z "},"(":{"ha":514,"x_min":0,"x_max":437,"o":"m 418 1386 q 437 1370 430 1381 l 437 1367 q 239 1066 273 1185 q 176 659 176 870 q 315 144 176 352 q 420 22 394 48 q 399 0 414 7 q 209 157 364 7 q 146 233 205 166 q 0 640 0 446 l 0 684 q 323 1321 0 1045 q 418 1386 404 1386 z "},")":{"ha":514,"x_min":0,"x_max":437,"o":"m 19 1386 q 114 1321 33 1386 q 437 684 437 1045 l 437 640 q 290 233 437 446 q 228 157 232 166 q 38 0 73 7 q 16 22 23 7 q 122 144 43 48 q 260 659 260 352 q 198 1066 260 870 q 0 1367 164 1185 l 0 1370 q 19 1386 7 1381 z "},"*":{"ha":694,"x_min":4,"x_max":592,"o":"m 269 1372 q 330 1323 310 1359 q 344 1199 341 1323 q 391 1260 391 1238 l 393 1271 q 372 1295 393 1295 q 353 1305 359 1295 l 353 1308 q 358 1320 353 1319 q 488 1305 488 1313 q 498 1255 498 1282 q 463 1183 498 1211 q 416 1130 463 1181 l 463 1130 q 513 1164 495 1130 l 513 1165 q 497 1196 501 1183 l 497 1198 q 511 1208 500 1204 q 592 1107 587 1126 l 592 1104 q 546 1046 580 1067 q 448 1034 532 1034 q 419 1032 445 1032 q 484 983 461 983 l 491 983 q 515 1000 515 983 q 529 1023 518 1023 l 531 1023 l 541 1020 q 529 890 541 968 q 479 878 506 878 q 419 899 438 878 q 341 970 367 945 l 341 886 q 372 856 341 869 q 374 865 372 865 q 378 857 374 863 q 412 882 408 882 q 416 884 414 884 q 428 868 428 880 q 323 784 385 828 l 318 784 q 231 838 298 790 q 104 856 104 850 q 81 958 94 882 q 4 1055 50 991 q 59 1145 12 1077 q 75 1271 62 1190 q 174 1294 109 1283 q 269 1372 232 1351 m 199 1284 q 212 1243 203 1243 q 246 1208 212 1240 l 246 1242 q 212 1291 246 1274 l 211 1291 q 199 1284 208 1291 m 92 1181 q 96 1176 94 1181 l 96 1175 l 88 1176 l 87 1176 l 85 1165 l 85 1152 q 110 1133 86 1149 l 122 1133 q 183 1132 144 1133 q 125 1187 132 1187 l 116 1188 q 92 1181 100 1188 m 77 1004 q 87 1002 87 1004 l 79 998 q 96 979 84 987 q 140 998 129 979 q 178 1035 178 1033 l 111 1035 q 77 1004 90 1035 m 188 896 q 195 869 190 872 q 200 874 195 872 l 201 874 l 200 867 l 200 865 l 216 863 l 224 863 q 243 888 226 863 l 243 960 q 188 897 188 913 l 188 896 z "},"+":{"ha":979,"x_min":-7,"x_max":901,"o":"m 402 1224 q 499 1146 465 1204 q 518 900 518 1124 l 518 852 q 589 850 565 850 l 703 850 q 779 902 751 850 l 779 905 q 755 952 760 932 l 755 954 q 776 971 760 964 q 901 814 893 844 l 901 810 q 833 722 882 751 q 728 703 816 703 q 593 699 728 699 l 515 699 q 513 469 513 541 q 558 427 519 446 l 561 427 q 565 441 561 441 q 570 429 565 437 q 622 467 618 467 q 629 469 627 469 q 648 446 648 463 q 485 315 581 383 l 477 315 q 319 417 435 330 l 361 476 q 364 701 361 500 l 361 701 q 153 703 200 703 q 106 656 127 703 q 120 652 120 656 l 109 647 l 144 600 q 149 587 149 591 q 125 566 149 576 q -7 734 64 635 q 94 897 0 763 l 156 855 q 347 852 283 852 l 364 852 q 366 999 366 951 l 366 1023 q 315 1099 366 1072 l 312 1099 q 264 1075 272 1075 l 262 1075 q 245 1097 254 1078 q 402 1224 345 1191 z "},",":{"ha":378,"x_min":20,"x_max":248,"o":"m 126 221 q 248 121 157 210 l 248 118 q 115 -99 208 -27 q 45 -132 64 -132 l 34 -132 l 28 -113 q 77 -47 28 -101 q 88 -1 88 -33 l 88 4 q 61 61 88 25 q 20 113 20 100 q 126 221 123 221 z "},"-":{"ha":1225,"x_min":8,"x_max":1120,"o":"m 960 888 q 1120 766 973 888 q 1069 709 1106 731 q 930 674 1023 674 q 762 671 822 671 q 195 674 615 671 q 149 636 176 674 l 165 636 l 165 633 l 152 631 l 198 587 l 198 579 q 171 566 198 572 q 8 699 101 619 q 136 829 22 730 l 138 829 q 206 796 140 829 q 651 793 495 793 l 884 793 q 966 831 930 793 l 966 837 q 939 875 939 863 q 960 888 939 881 z "},".":{"ha":378,"x_min":17,"x_max":239,"o":"m 131 235 l 239 124 q 131 5 239 100 l 128 5 q 17 119 77 46 q 131 235 75 189 z "},"/":{"ha":891,"x_min":0,"x_max":818,"o":"m 808 1156 q 818 1117 818 1137 l 818 1103 q 734 912 818 1010 q 274 300 618 743 q 172 155 172 173 q 170 139 170 148 l 170 125 q 176 109 170 110 q 186 121 183 121 l 188 121 l 188 119 q 184 106 184 112 l 186 106 q 254 131 249 131 q 262 121 262 129 q 221 80 262 90 q 12 0 170 53 q 0 199 0 50 q 96 264 77 243 q 340 585 123 303 q 610 941 583 905 q 634 1019 634 983 l 634 1039 q 585 1029 625 1039 l 574 1031 l 574 1037 q 612 1076 574 1066 q 808 1156 695 1119 z "},":":{"ha":378,"x_min":87,"x_max":315,"o":"m 199 939 q 307 819 307 848 q 204 711 245 748 l 191 711 q 87 822 90 814 l 87 825 q 199 939 115 868 m 207 231 l 315 119 q 207 0 315 96 l 204 0 q 93 114 153 41 q 207 231 151 184 z "},";":{"ha":378,"x_min":81,"x_max":316,"o":"m 192 939 q 300 819 300 848 q 197 711 238 748 l 184 711 q 81 822 83 814 l 81 825 q 192 939 108 868 m 200 231 l 309 119 q 200 0 309 96 l 197 0 q 86 114 146 41 q 200 231 144 184 m 194 221 q 316 121 225 210 l 316 118 q 183 -99 276 -27 q 113 -132 132 -132 l 102 -132 l 96 -113 q 145 -47 96 -101 q 156 -1 156 -33 l 156 4 q 129 61 156 25 q 88 113 88 100 q 194 221 191 221 z "},"<":{"ha":782,"x_min":14,"x_max":734,"o":"m 724 406 q 646 323 694 361 q 576 296 622 296 l 564 296 q 484 318 527 296 q 319 450 454 324 q 83 559 208 559 q 14 551 49 559 l 14 559 q 39 591 14 570 q 284 768 140 672 q 553 891 440 891 l 571 891 q 694 850 643 891 l 694 848 l 597 743 q 479 781 549 781 l 477 781 q 214 658 374 781 q 368 587 271 658 q 416 545 413 545 q 669 395 563 395 q 733 421 696 395 l 734 421 l 734 420 l 724 406 z "},"=":{"ha":1190,"x_min":-4,"x_max":1124,"o":"m 948 1028 q 1108 906 961 1028 q 1057 849 1094 871 q 918 814 1010 814 q 750 811 810 811 q 183 814 603 811 q 137 776 163 814 l 153 776 l 153 773 l 140 770 l 186 727 l 186 719 q 159 705 186 712 q -4 838 89 759 q 123 968 10 869 l 126 968 q 194 936 127 968 q 639 933 483 933 l 872 933 q 954 971 918 933 l 954 977 q 926 1015 926 1003 q 948 1028 926 1021 m 964 760 q 1103 646 1026 714 q 1124 629 1119 629 l 1124 621 q 997 496 1062 545 l 929 529 q 484 532 640 532 l 251 532 q 170 494 205 532 l 170 488 q 197 450 197 462 q 178 439 193 439 l 170 439 q 15 559 98 486 q 66 616 29 594 q 205 651 113 651 q 373 654 313 654 q 940 651 520 654 q 986 689 960 651 l 970 689 l 970 692 l 983 694 l 937 738 l 937 746 q 964 760 937 753 z "},">":{"ha":782,"x_min":14,"x_max":734,"o":"m 14 420 l 14 421 l 16 421 q 79 395 53 395 q 333 545 186 395 q 381 587 336 545 q 534 658 477 658 q 271 781 375 781 l 269 781 q 151 743 199 781 l 54 848 l 54 850 q 178 891 106 891 l 196 891 q 465 768 309 891 q 709 591 609 672 q 734 559 734 570 l 734 551 q 666 559 700 559 q 429 450 541 559 q 264 318 295 324 q 184 296 222 296 l 173 296 q 102 323 127 296 q 24 406 55 361 l 14 420 z "},"?":{"ha":594,"x_min":90,"x_max":513,"o":"m 212 1017 q 496 871 425 1017 q 513 808 513 829 l 513 770 q 374 548 513 697 q 282 347 282 442 q 266 277 271 277 l 239 277 q 236 317 236 304 l 236 328 q 334 678 236 451 q 342 732 342 710 q 244 857 342 823 q 206 860 240 857 q 111 814 179 860 q 95 811 97 811 l 90 819 q 212 1017 151 936 m 247 220 l 255 220 q 366 106 322 156 l 252 0 l 250 0 q 138 103 228 9 l 138 109 q 231 203 144 134 q 247 220 231 208 z "},"@":{"ha":1293,"x_min":68,"x_max":1229,"o":"m 667 1109 l 689 1109 q 933 1039 838 1109 q 1199 765 1074 958 q 1229 708 1229 719 q 1180 510 1180 616 l 1180 499 q 1207 350 1180 422 l 1202 350 q 1061 505 1139 350 q 1028 675 1028 612 q 1066 827 1028 749 l 1066 830 q 819 952 987 952 l 803 952 q 388 789 601 952 q 214 507 214 636 l 214 486 q 285 290 214 378 q 543 201 380 201 q 819 258 685 201 l 819 263 q 768 301 815 263 q 673 236 753 301 l 654 233 l 646 233 q 562 285 636 233 q 513 301 520 301 l 513 307 q 534 336 513 320 q 543 453 540 372 q 537 681 537 631 l 656 746 q 716 795 705 789 q 909 675 773 765 q 917 673 914 673 l 917 670 q 887 632 917 658 q 884 627 887 627 l 887 621 l 887 610 q 890 366 887 522 q 941 342 922 342 l 963 342 q 982 317 963 324 l 1123 236 q 817 14 1033 85 q 708 0 749 0 l 659 0 q 217 231 435 0 l 149 326 q 68 594 68 469 l 68 605 q 320 1023 68 861 q 667 1109 475 1109 m 656 675 q 659 480 659 550 l 659 372 q 727 328 705 333 q 770 355 762 345 l 770 608 q 673 684 750 633 l 670 684 l 656 675 z "},"A":{"ha":1173,"x_min":0,"x_max":1175,"o":"m 675 1131 q 711 1096 711 1131 q 895 475 779 914 q 1034 146 998 146 q 1053 138 1040 138 l 1055 138 q 1139 171 1067 138 l 1153 171 q 1175 165 1158 171 l 1175 152 q 952 11 984 11 q 909 0 934 0 l 901 0 q 792 117 835 0 q 716 363 751 239 q 697 418 697 410 q 545 350 600 350 q 445 391 486 350 q 388 423 405 423 l 372 423 q 326 363 340 423 q 206 141 252 168 l 206 138 q 288 157 248 157 q 420 155 400 155 q 507 176 467 155 l 510 176 q 396 43 487 101 q 255 3 320 3 l 79 22 q 0 8 33 19 l 0 16 q 46 73 0 33 q 285 675 151 314 q 415 966 357 850 q 575 1088 484 1054 q 675 1131 582 1094 m 518 1107 q 304 960 364 960 l 282 960 q 222 982 248 960 q 84 1009 171 1009 l 84 1015 q 236 1096 128 1096 l 385 1088 q 513 1107 418 1088 l 518 1107 m 551 901 q 399 521 499 793 q 496 572 468 572 l 499 572 q 616 518 527 572 q 667 507 642 507 q 553 901 656 556 l 551 901 z "},"B":{"ha":1217,"x_min":-13,"x_max":1129,"o":"m 768 1171 q 1110 929 870 1171 l 1126 907 q 1018 799 1126 886 q 909 709 924 719 l 909 707 q 1088 674 1088 693 q 1126 519 1126 644 q 1129 408 1129 468 l 1129 365 q 1067 167 1129 210 q 915 72 1028 130 q 777 23 852 23 l 728 23 q 530 39 706 23 l 527 39 q 427 31 454 31 l 408 31 l 380 34 l 380 37 q 424 218 424 65 l 424 289 q 418 669 418 577 q 465 983 418 928 q 663 1122 528 1055 q 768 1171 715 1171 m 576 1160 q 592 1146 587 1156 q 310 970 437 970 q 169 1008 275 970 q 134 1010 151 1010 q 28 921 58 1010 q 36 886 36 895 q 14 867 36 867 q -13 913 3 867 l -13 918 q 142 1135 -13 1043 q 218 1152 165 1146 q 413 1119 251 1152 q 446 1116 421 1116 l 465 1116 q 576 1160 522 1116 m 633 1019 q 611 788 611 930 q 619 427 611 704 q 570 172 619 235 l 570 170 l 573 170 q 717 210 642 210 q 928 178 775 210 q 931 332 931 280 l 931 506 q 871 536 918 536 q 649 549 820 541 q 630 560 630 554 l 630 568 q 690 631 630 588 l 912 821 q 847 880 911 837 q 633 1019 705 1008 z "},"C":{"ha":1046,"x_min":0,"x_max":993,"o":"m 621 1194 q 781 1134 659 1194 q 852 1120 830 1120 l 879 1120 q 920 1153 893 1120 l 930 1153 q 939 1145 935 1153 q 822 1006 909 1060 q 692 968 751 968 q 496 1036 637 968 q 423 1053 456 1053 q 225 852 304 1053 q 198 675 198 766 q 388 217 198 393 q 551 152 467 152 q 732 282 637 152 q 887 374 812 374 q 993 342 935 374 l 993 328 q 906 136 939 182 l 898 136 q 808 171 882 136 q 787 174 798 174 l 781 174 q 681 109 755 174 q 423 0 538 0 l 418 0 q 98 206 243 0 q 0 559 0 374 q 255 1050 0 855 q 586 1194 467 1194 l 621 1194 z "},"D":{"ha":1074,"x_min":1,"x_max":980,"o":"m 185 1139 l 188 1128 q 166 1101 166 1115 l 166 1096 q 201 1082 199 1082 l 576 1096 q 915 1015 802 1096 q 980 787 980 962 l 980 410 q 937 195 980 236 q 676 19 870 87 l 600 0 q 272 16 378 16 q 144 0 155 16 l 128 0 q 120 14 122 0 q 158 57 120 20 q 182 787 169 215 q 234 871 189 823 q 288 928 286 918 l 283 928 q 128 920 149 920 q 3 987 37 920 q 1 1004 3 1000 q 163 1139 1 1074 l 185 1139 m 391 928 q 372 564 372 904 q 337 168 372 245 l 315 133 l 318 133 q 554 182 431 182 q 739 152 629 182 q 779 193 779 157 q 785 627 779 251 q 760 844 785 844 q 522 933 681 933 l 492 933 q 391 928 449 933 z "},"E":{"ha":1141,"x_min":-4,"x_max":1062,"o":"m 522 1130 q 555 1116 543 1130 l 555 1114 q 332 924 433 924 l 313 924 q 159 970 268 924 q 126 972 140 972 q 56 902 56 961 q 12 837 56 837 l 9 837 q -4 867 1 837 q 66 1029 1 928 q 205 1114 136 1114 l 224 1114 q 395 1095 243 1114 l 425 1095 q 522 1130 476 1095 m 720 1124 q 907 1070 753 1124 q 937 1067 926 1067 l 956 1067 q 1038 1100 995 1067 l 1062 1100 l 1062 1086 q 943 959 1061 1065 q 791 905 865 905 q 652 945 760 905 q 609 954 635 954 l 587 954 q 571 935 584 954 q 557 701 557 773 l 557 669 q 560 623 557 654 q 685 704 635 704 q 802 650 715 704 q 829 642 816 642 l 845 642 q 935 688 861 642 q 945 680 945 684 l 945 677 q 823 514 924 611 q 723 473 761 473 l 715 473 q 579 536 676 473 q 560 538 570 538 q 522 243 541 243 q 487 164 521 221 q 623 216 547 216 q 829 186 650 216 q 864 183 846 183 q 986 224 932 183 l 986 221 q 853 50 951 146 q 734 -4 783 1 q 528 37 542 37 q 490 39 519 39 l 481 39 q 370 15 432 39 q 330 4 338 4 l 324 4 q 305 15 310 4 q 332 58 305 26 q 370 758 357 197 q 422 905 386 850 q 528 1024 443 945 q 720 1124 655 1115 z "},"F":{"ha":1101,"x_min":8,"x_max":1061,"o":"m 225 1135 q 426 1095 376 1095 q 545 1135 493 1095 l 551 1135 q 407 954 551 1074 q 331 937 369 937 q 155 989 284 937 q 141 991 150 991 l 133 991 q 68 943 98 991 l 54 869 q 33 859 43 859 l 22 859 q 8 899 8 886 q 46 1019 14 962 q 225 1135 132 1135 m 1053 1135 q 1061 1133 1058 1133 l 1061 1130 q 933 964 1037 1067 q 773 907 869 907 l 770 907 q 624 948 744 907 l 586 951 q 545 831 545 913 l 545 642 q 651 696 616 696 l 662 696 q 808 644 736 644 q 909 669 853 644 q 930 690 926 690 q 941 682 941 686 q 863 533 941 623 q 735 471 787 471 q 597 519 696 471 q 545 533 567 533 l 545 522 q 469 153 545 251 l 472 153 q 537 175 492 175 q 637 172 582 175 q 703 191 682 177 q 708 175 708 182 q 665 104 694 139 q 521 -4 588 -4 l 472 -4 l 363 9 q 301 -4 353 9 l 293 -4 q 345 292 345 92 q 342 625 342 508 q 382 880 342 764 q 553 1048 427 953 l 572 1070 q 570 1078 570 1076 l 575 1081 q 583 1073 575 1077 q 738 1133 663 1133 q 922 1095 851 1095 l 928 1095 q 1053 1135 993 1095 z "},"G":{"ha":1054,"x_min":0,"x_max":1015,"o":"m 578 1175 q 776 1082 659 1175 q 895 1036 844 1036 l 903 1036 q 998 1072 939 1036 l 1015 1058 l 1015 1050 q 741 914 850 914 l 722 914 q 556 990 652 914 q 431 1036 487 1036 q 252 871 314 985 q 198 651 198 764 q 358 258 198 422 q 591 149 474 149 l 597 149 q 792 241 761 157 q 800 288 800 267 l 800 307 q 732 456 800 397 l 730 461 l 697 458 l 689 458 q 578 510 668 458 l 553 513 q 472 464 530 513 l 456 461 l 453 461 q 545 605 453 523 q 662 665 625 663 q 768 629 684 665 q 844 616 804 616 q 947 635 882 616 q 966 605 966 630 l 966 600 q 947 581 947 582 l 947 578 q 993 434 993 516 q 876 193 993 330 q 616 35 751 76 q 472 0 510 0 l 445 0 q 90 231 260 0 q 0 553 0 382 q 174 960 0 782 q 396 1123 288 1074 q 578 1175 523 1175 z "},"H":{"ha":1273,"x_min":0,"x_max":1215,"o":"m 811 1158 q 1017 1099 901 1158 l 1020 1085 l 1020 1080 q 857 947 865 947 q 692 993 740 993 q 570 819 570 993 q 567 749 570 789 l 572 746 q 792 884 722 884 l 811 884 q 1072 741 951 884 q 1188 437 1188 587 q 1036 49 1188 282 q 990 -41 990 -22 l 990 -60 q 1107 -125 990 -116 l 1134 -125 q 1202 -95 1147 -125 q 1215 -103 1215 -98 q 1142 -190 1200 -151 q 941 -263 1036 -263 l 922 -263 q 827 -217 842 -256 q 817 -165 817 -183 q 922 30 817 -106 q 982 165 982 156 q 1001 296 1001 225 q 827 673 1001 511 q 697 735 755 735 q 567 637 606 702 q 556 613 556 623 l 556 431 q 483 146 556 222 l 477 138 q 559 168 488 138 l 583 171 q 705 168 666 168 q 746 174 709 168 l 749 168 l 749 165 q 692 100 749 150 q 581 11 618 16 q 559 3 581 8 q 399 5 452 5 l 377 5 q 282 -5 323 5 l 282 -3 q 336 111 336 70 q 366 629 366 189 q 396 819 377 744 q 477 939 399 844 q 662 1109 593 1069 q 795 1158 735 1158 l 811 1158 m 266 1134 q 502 1090 335 1134 l 513 1090 q 605 1115 527 1090 l 616 1115 l 616 1109 q 372 963 482 963 l 355 963 q 201 1001 317 963 q 141 1009 168 1009 l 119 1009 q 52 928 87 1009 q 27 890 45 890 l 19 890 q 0 922 0 890 q 95 1072 0 979 q 266 1134 155 1134 z "},"I":{"ha":779,"x_min":-1,"x_max":737,"o":"m 233 1150 l 279 1150 q 420 1107 308 1150 q 479 1099 454 1099 q 602 1123 500 1099 q 355 955 433 955 l 330 955 q 186 1006 287 955 q 132 1020 157 1020 q 56 960 79 1020 q 43 892 51 952 l 37 890 l 26 890 q -1 949 -1 890 q 149 1134 -1 1050 q 233 1150 191 1150 m 710 1134 l 718 1123 l 615 1025 q 558 887 583 981 q 520 380 534 812 q 482 206 503 233 q 444 149 482 197 l 444 146 q 534 171 479 171 l 542 171 q 688 163 554 171 q 724 179 694 163 l 726 179 q 737 165 737 176 q 523 0 620 0 l 507 0 q 338 19 465 0 l 328 19 q 260 3 301 19 l 249 3 l 249 8 q 279 71 249 25 q 328 477 311 180 q 357 800 339 800 q 669 1120 450 1021 q 710 1134 707 1134 z "},"J":{"ha":1025,"x_min":0,"x_max":1017,"o":"m 458 1161 l 494 1161 q 746 1123 532 1161 q 784 1120 767 1123 q 898 1142 831 1120 q 814 1039 887 1106 q 635 960 705 960 l 616 960 q 434 1023 568 960 q 366 1039 395 1039 l 347 1039 q 241 936 286 1039 l 241 903 q 214 879 241 883 q 190 914 190 890 q 317 1109 190 1000 q 458 1161 401 1161 m 1017 1158 l 1017 1150 q 930 1020 949 1089 q 895 627 905 998 l 895 496 q 773 114 895 208 q 616 8 728 46 q 567 0 587 0 l 499 0 q 271 73 441 0 q 122 103 191 103 l 111 103 q 49 49 79 103 q 5 24 29 24 l 0 24 l 0 27 q 176 250 0 119 q 244 266 215 266 l 258 266 q 534 174 341 266 q 662 149 600 149 l 665 149 q 694 239 694 172 q 700 363 700 335 q 697 616 697 560 q 776 974 697 895 q 960 1126 882 1090 q 1017 1158 980 1143 z "},"K":{"ha":1369,"x_min":8,"x_max":1354,"o":"m 247 1161 l 258 1161 q 475 1128 296 1161 q 513 1126 483 1126 l 521 1126 q 610 1145 577 1126 q 643 1139 636 1139 q 494 996 631 1091 q 396 974 438 974 q 149 1039 316 974 l 133 1039 q 57 974 82 1039 q 43 936 55 936 l 24 936 q 11 963 18 936 l 8 963 q 95 1115 33 1065 q 247 1161 178 1161 m 751 1158 l 751 1134 q 621 852 621 1078 l 621 827 q 624 773 621 810 q 830 930 663 794 q 958 1012 945 1012 l 960 1012 q 1175 868 1076 895 q 1213 846 1213 859 l 1213 844 q 971 632 1107 737 q 871 537 897 567 q 998 423 933 518 q 1120 228 1038 372 q 1161 174 1159 180 l 1175 176 l 1177 176 l 1177 171 l 1172 171 l 1172 168 q 1245 125 1191 140 q 1321 163 1267 125 q 1343 168 1331 168 l 1354 168 q 1202 14 1330 87 q 1131 -11 1144 -11 l 1093 -11 q 895 182 998 -11 q 762 369 830 295 q 648 407 715 407 l 637 407 q 629 415 633 407 l 629 426 q 966 713 701 492 q 977 727 966 715 l 977 730 q 819 827 922 752 q 624 684 755 797 q 608 385 616 626 q 567 217 591 237 q 510 160 567 214 l 513 160 q 570 168 536 168 q 719 152 587 168 l 765 157 q 543 -3 642 -3 q 347 11 447 11 q 285 0 325 11 l 285 3 q 377 130 350 85 q 410 347 410 215 q 404 600 410 471 q 575 1031 404 910 q 751 1158 679 1122 z "},"L":{"ha":1093,"x_min":3,"x_max":1064,"o":"m 212 1172 l 342 1172 q 497 1142 451 1142 q 573 1164 535 1142 q 597 1150 597 1158 l 597 1147 q 351 982 469 982 l 340 982 q 158 1031 294 982 l 134 1031 q 55 977 71 1031 q 12 914 55 924 q 3 958 3 932 q 120 1128 3 1030 q 212 1172 177 1168 m 720 1172 l 836 1172 q 956 1104 859 1172 l 961 1096 l 961 1093 q 814 949 961 1090 l 682 1012 q 649 1017 663 1017 l 627 1017 q 576 776 576 987 q 568 339 568 406 q 492 190 568 275 l 494 190 q 644 217 559 217 q 880 182 703 217 q 915 179 915 182 q 1048 231 992 179 q 1064 220 1064 225 l 1064 214 q 901 38 1023 102 q 758 0 827 0 l 755 0 q 475 38 696 0 q 421 41 456 41 l 410 41 q 356 24 366 41 q 329 3 339 3 q 321 5 323 5 q 356 98 321 28 q 372 675 365 98 q 402 882 386 821 q 559 1066 433 954 q 720 1172 700 1169 z "},"M":{"ha":1732,"x_min":8,"x_max":1714,"o":"m 1326 1150 q 1525 1028 1410 1150 q 1573 743 1573 945 l 1573 730 l 1563 363 l 1563 336 q 1503 163 1563 231 l 1519 165 q 1638 160 1567 165 q 1706 174 1674 160 l 1714 163 l 1714 160 q 1516 11 1624 70 l 1459 5 q 1335 8 1392 8 l 1326 8 q 1272 5 1309 8 l 1267 24 l 1267 30 q 1359 217 1359 86 q 1356 358 1356 315 q 1362 404 1358 404 q 1359 464 1359 445 l 1359 849 q 1251 968 1338 911 q 1183 998 1228 983 q 1077 928 1097 965 q 1069 906 1069 914 l 1069 806 l 1080 488 q 1028 212 1080 326 q 990 160 990 170 q 998 163 996 163 q 1188 184 1153 163 q 1202 174 1200 179 l 1202 171 q 1082 71 1152 112 q 952 5 998 5 l 936 5 q 800 14 888 5 q 787 11 795 11 q 776 27 784 11 q 863 190 863 136 l 863 193 q 871 768 863 308 q 762 958 871 916 q 665 996 690 996 l 654 996 q 616 947 626 996 q 600 808 600 901 l 600 480 q 572 198 600 303 q 445 81 497 109 q 293 5 323 5 l 285 5 q 149 41 260 5 l 125 41 q 41 -30 104 41 l 27 -33 q 8 -24 8 -31 q 109 122 8 28 q 258 206 211 206 l 271 206 q 388 182 311 206 q 399 282 399 192 l 399 309 q 393 616 399 370 q 494 987 393 867 q 589 1069 543 1044 q 814 1145 739 1145 l 819 1145 q 998 1053 879 1145 q 1036 1012 1034 1012 q 1308 1150 1212 1150 l 1326 1150 m 277 1145 q 374 1120 312 1145 q 439 1109 402 1109 l 450 1109 q 605 1142 517 1109 l 605 1139 l 608 1123 q 412 977 454 981 q 345 963 388 963 l 331 963 q 190 1001 315 963 q 157 1004 176 1004 q 73 958 116 1004 q 62 911 62 941 l 62 860 q 43 849 58 849 q 8 903 8 855 l 8 911 q 98 1072 8 985 q 274 1145 195 1145 l 277 1145 z "},"N":{"ha":1281,"x_min":1,"x_max":1259,"o":"m 874 1158 q 1121 1017 987 1158 q 1205 732 1205 899 q 977 247 1205 475 q 909 174 909 178 l 945 174 q 1091 165 957 174 l 1099 165 q 1221 206 1164 165 l 1259 225 l 1259 222 q 1183 157 1259 204 q 975 19 1048 35 q 931 11 931 13 l 899 14 l 692 14 q 684 30 684 16 q 766 117 684 56 q 1010 605 1010 343 q 939 865 1010 756 q 760 998 873 961 q 736 1001 745 1001 l 725 1001 q 682 963 688 1001 q 654 461 654 897 q 622 258 654 401 q 408 57 583 167 q 310 -3 341 -3 l 277 -3 q 144 52 259 -3 q 112 57 125 57 l 96 57 q 31 0 48 57 l 25 -3 l 12 -3 q 1 30 1 -3 q 123 195 1 86 q 226 233 180 233 l 237 233 q 375 176 283 233 q 429 163 409 163 q 440 290 440 163 l 440 320 q 437 556 440 431 q 603 1036 437 901 q 874 1158 758 1158 m 302 1145 l 307 1145 q 484 1093 356 1145 q 524 1088 509 1088 l 535 1088 q 635 1115 563 1088 q 657 1118 646 1118 l 657 1112 q 516 996 648 1112 q 399 944 450 944 l 378 944 q 229 993 338 944 q 204 996 214 996 l 188 996 q 98 863 121 996 q 79 849 94 849 q 52 911 60 849 l 52 917 q 201 1120 52 1025 q 302 1145 254 1145 z "},"O":{"ha":1141,"x_min":0,"x_max":1112,"o":"m 420 1161 q 640 1104 524 1104 q 779 1126 697 1104 q 635 993 779 1065 q 456 960 541 960 q 296 1004 372 960 q 163 751 163 924 l 163 711 q 293 347 163 549 q 610 138 448 138 q 789 190 701 138 q 903 472 903 285 l 903 491 q 787 857 903 703 q 667 922 716 922 q 616 917 658 922 q 659 963 616 935 q 808 1066 759 1065 l 825 1066 q 1023 906 898 1066 q 1112 616 1112 765 q 860 133 1112 341 q 681 33 760 58 q 551 0 607 0 l 461 0 q 163 144 315 0 q 0 570 0 321 l 0 605 q 54 838 0 753 q 225 1039 83 908 q 420 1161 355 1138 z "},"P":{"ha":1259,"x_min":-3,"x_max":1225,"o":"m 273 1181 l 300 1181 q 463 1143 351 1181 q 523 1138 503 1138 l 547 1138 q 672 1181 620 1138 q 675 1173 675 1176 q 577 1067 675 1131 q 347 972 457 972 q 176 1027 284 972 q 138 1035 145 1035 q 54 916 66 1035 l 54 910 l 56 897 q 29 880 40 880 l 16 880 q -3 935 3 880 q 48 1073 -3 986 q 273 1181 147 1181 m 840 1176 q 1068 1108 895 1176 l 1131 1100 q 1212 1119 1161 1100 l 1225 1116 l 1225 1111 q 1182 989 1193 1072 q 1152 262 1174 911 q 1079 167 1152 233 q 870 15 1004 117 q 732 -37 791 -33 l 612 -7 q 591 -229 601 -229 q 387 -362 492 -311 l 382 -362 q 404 37 393 -281 q 406 39 406 37 q 336 53 400 53 l 309 53 q 165 18 237 53 q 146 9 159 9 l 146 15 q 336 194 224 123 q 406 210 351 199 q 431 829 420 331 q 523 989 456 930 q 683 1105 611 1070 q 808 1173 785 1173 l 840 1176 m 718 1019 q 680 1005 718 1010 q 645 924 656 989 q 618 216 637 924 l 615 197 q 797 126 642 197 q 846 118 826 118 l 854 118 q 941 175 907 118 q 946 332 946 263 l 946 566 q 1038 975 946 834 l 1036 975 q 946 954 993 954 q 718 1019 884 954 z "},"Q":{"ha":1281,"x_min":0,"x_max":1270,"o":"m 507 1215 q 689 1161 584 1161 l 705 1161 q 819 1183 757 1161 l 844 1183 l 844 1166 q 526 1006 694 1006 l 502 1006 q 358 1061 465 1006 q 260 985 323 1046 q 179 768 179 906 l 179 713 q 244 450 179 589 q 431 241 296 340 q 600 203 503 203 q 911 456 816 203 q 928 567 928 518 l 928 597 q 849 849 909 743 q 716 968 783 945 q 689 979 716 973 q 678 977 680 977 l 678 979 q 770 1072 678 1013 q 844 1109 770 1077 q 1066 909 988 1054 q 1118 675 1118 816 q 825 195 1118 411 q 475 57 623 57 l 472 57 q 212 149 347 57 q 127 228 127 224 q 0 589 0 382 l 0 605 q 244 1058 0 897 q 505 1215 347 1137 l 507 1215 m 947 182 q 1104 141 989 182 q 1161 136 1138 136 q 1253 163 1217 136 l 1270 160 l 1270 157 q 1199 73 1270 126 q 1031 0 1076 0 l 947 0 q 768 65 885 0 q 656 49 685 52 l 656 52 q 711 90 656 66 q 947 182 854 182 z "},"R":{"ha":1433,"x_min":-16,"x_max":1416,"o":"m 857 1204 q 1039 1044 980 1076 q 1202 939 1092 1008 l 1202 928 q 920 686 1084 817 q 852 618 852 621 q 979 515 899 598 q 1166 263 1068 411 q 1291 141 1272 141 q 1310 138 1302 138 q 1394 165 1367 138 q 1416 157 1416 163 l 1416 149 q 1343 73 1416 115 q 1166 -8 1239 -8 l 1134 -8 q 917 231 1053 14 l 760 426 q 654 505 682 496 l 648 513 l 648 521 q 697 583 648 548 l 963 819 l 963 822 q 697 1031 933 841 q 635 808 635 1000 q 583 179 635 233 l 553 141 q 640 163 588 163 q 768 157 747 157 q 852 176 810 157 q 651 8 756 8 q 545 0 608 3 l 334 8 l 334 11 q 369 43 334 17 q 420 209 420 102 l 420 298 q 429 448 420 328 q 426 678 426 631 q 548 1025 426 924 q 838 1204 712 1141 l 857 1204 m 252 1180 q 475 1137 288 1180 q 510 1134 488 1134 l 543 1134 q 662 1161 566 1134 l 665 1156 q 629 1120 665 1134 q 369 979 498 979 q 174 1044 306 979 q 125 1053 143 1053 l 100 1053 q 46 1017 60 1053 q 8 939 35 939 q -5 936 3 936 q -16 977 -16 954 q 14 1061 -16 1029 q 252 1180 118 1180 z "},"S":{"ha":750,"x_min":0,"x_max":722,"o":"m 320 1177 l 326 1177 q 423 1128 345 1177 q 529 1104 479 1104 l 553 1104 q 713 1164 644 1104 l 722 1164 l 722 1147 q 621 974 722 1070 q 453 909 548 909 q 258 985 349 909 q 214 895 214 953 l 214 882 q 279 784 214 842 q 404 724 320 751 q 678 515 608 654 q 694 445 694 474 l 694 437 q 545 79 694 279 q 458 3 481 3 l 450 3 q 396 30 444 3 q 184 87 283 87 q 38 22 75 87 q 3 0 18 0 l 0 0 q 68 152 7 62 q 179 250 142 250 q 274 269 226 269 q 537 195 372 269 l 540 195 q 581 301 581 252 q 388 480 581 408 q 155 602 226 555 q 62 722 62 671 q 60 743 62 733 q 293 1166 60 866 q 320 1177 314 1177 z "},"T":{"ha":1225,"x_min":0,"x_max":1196,"o":"m 1177 1215 q 1196 1210 1191 1210 l 1196 1202 q 1077 1053 1196 1154 q 887 985 989 994 q 673 966 833 977 q 651 939 673 947 q 583 618 583 884 q 586 475 583 559 q 488 165 586 260 q 540 171 510 171 l 635 171 q 768 195 724 171 q 770 190 768 190 q 678 79 745 144 q 534 0 598 9 l 499 0 q 361 8 475 0 q 296 0 351 8 q 363 212 363 50 q 377 339 366 269 l 377 518 q 469 901 377 812 q 578 977 536 968 l 578 982 q 274 1009 370 1009 q 79 947 115 1009 q 52 871 52 937 q 24 846 44 846 l 14 846 q 0 895 5 846 q 155 1120 0 989 q 399 1185 242 1185 q 838 1147 484 1185 q 906 1145 852 1145 l 928 1145 q 1177 1215 1081 1145 z "},"U":{"ha":1453,"x_min":0,"x_max":1416,"o":"m 231 1204 q 439 1156 271 1204 q 488 1150 467 1150 l 510 1150 q 613 1185 559 1150 q 624 1175 622 1183 q 358 996 482 996 q 155 1053 307 996 q 103 1058 122 1058 l 92 1058 q 54 990 54 1015 q 65 963 65 966 q 38 941 65 956 q 0 990 8 941 q 73 1131 0 1061 q 231 1204 150 1204 m 716 1183 q 719 1169 716 1174 q 610 977 648 1120 q 578 385 594 977 l 578 374 q 616 193 585 207 q 716 149 671 149 q 892 209 794 149 q 998 380 998 288 q 1053 958 998 958 l 1120 1023 q 1020 1012 1058 1012 q 936 1023 1002 1012 q 811 963 919 1023 l 808 963 l 808 966 q 947 1126 853 1049 q 1050 1172 1005 1172 l 1221 1147 q 1313 1180 1272 1147 q 1324 1166 1318 1179 q 1280 1120 1324 1162 q 1226 933 1231 1008 q 1210 575 1210 876 l 1210 543 q 1115 171 1210 261 l 1112 165 l 1115 165 q 1280 212 1218 212 l 1297 212 q 1367 201 1308 212 q 1416 212 1395 203 l 1416 209 q 1256 30 1381 109 q 1183 16 1216 16 q 1009 33 1025 33 q 930 11 956 33 l 928 11 l 925 16 q 974 163 974 92 q 667 0 792 0 l 621 0 q 418 114 497 0 q 372 382 372 227 l 393 827 q 502 1023 422 947 q 711 1183 602 1124 l 716 1183 z "},"V":{"ha":1293,"x_min":0,"x_max":1275,"o":"m 1044 1180 l 1066 1180 q 1270 985 1223 1180 q 1275 939 1275 963 l 1275 901 q 1109 458 1275 762 q 838 60 1002 273 q 773 0 793 0 l 770 0 q 765 5 765 0 l 765 30 q 589 442 765 203 q 388 836 388 713 q 621 1164 388 990 l 624 1164 l 624 1153 q 572 1080 624 1135 q 548 979 548 1025 q 719 637 548 846 q 901 307 871 428 l 903 307 q 1082 762 1082 588 l 1082 773 q 1050 930 1082 850 q 909 1020 969 1020 q 765 966 836 1020 l 762 966 q 757 971 757 966 l 757 987 q 1044 1180 916 1180 m 222 1175 q 404 1139 242 1175 q 439 1137 422 1137 q 540 1164 477 1137 l 540 1161 q 515 1112 540 1131 q 296 971 394 971 q 157 1009 264 971 q 133 1012 147 1012 l 125 1012 q 49 917 58 1012 l 33 911 q 0 949 0 918 l 0 952 q 157 1161 0 1078 q 222 1175 183 1171 z "},"W":{"ha":1832,"x_min":0,"x_max":1777,"o":"m 1506 1196 l 1514 1196 q 1750 1058 1686 1196 q 1777 952 1777 991 l 1777 868 q 1638 529 1777 732 q 1373 152 1565 433 l 1278 38 q 1234 8 1254 8 q 1226 11 1229 11 q 1240 122 1240 66 q 1061 507 1240 326 q 846 776 857 726 q 811 906 811 845 l 811 925 q 854 1039 811 999 q 990 1166 916 1116 l 1012 1183 l 1015 1183 l 1015 1180 q 971 1077 971 1120 q 1215 665 971 904 q 1283 586 1215 660 q 1400 336 1400 429 q 1600 765 1600 595 l 1600 768 q 1440 1034 1600 957 q 1397 1042 1412 1042 q 1291 987 1358 1042 l 1270 987 q 1430 1169 1305 1091 q 1506 1196 1489 1196 m 269 1183 q 505 1147 304 1183 l 534 1147 q 629 1180 608 1147 l 643 1183 l 646 1183 l 646 1180 q 431 977 591 1063 q 391 971 406 971 l 369 971 q 163 1023 313 971 q 144 1025 152 1025 q 60 960 60 1017 q 30 906 60 906 l 27 906 q 0 944 0 906 q 152 1147 0 1063 q 269 1183 200 1183 m 738 1172 l 738 1166 q 659 1055 738 1143 q 621 895 621 981 q 760 589 621 750 q 890 445 760 586 q 1074 155 1074 243 q 1031 95 1074 127 q 941 5 994 44 l 922 0 l 920 0 q 776 244 905 89 q 518 553 539 494 q 464 735 464 648 l 464 751 q 553 1006 464 904 q 711 1153 657 1120 q 738 1172 722 1164 z "},"X":{"ha":1404,"x_min":0,"x_max":1381,"o":"m 1055 1194 q 1161 1142 1063 1194 q 1221 1126 1194 1126 l 1242 1126 q 1375 1177 1284 1126 l 1381 1169 l 1381 1161 q 1294 1042 1366 1114 q 1221 990 1223 990 q 1120 958 1155 958 q 982 990 1038 958 q 806 708 936 925 q 849 670 817 670 q 882 667 863 667 q 1039 730 970 667 l 1044 730 q 1053 719 1047 730 q 936 551 1046 673 q 917 521 917 533 q 1042 317 943 488 q 1191 179 1148 179 l 1199 179 q 1267 212 1207 179 l 1283 212 q 1305 187 1297 205 q 1180 65 1300 187 q 1077 22 1118 22 l 1066 22 q 968 73 1017 22 q 811 282 869 176 q 686 477 742 407 q 562 304 614 397 q 396 79 493 184 q 266 0 313 0 q 111 68 218 0 l 65 79 q 3 57 36 79 l 0 57 q 117 241 0 101 q 163 263 143 263 q 315 198 201 263 q 347 193 320 198 q 437 279 395 193 l 572 494 l 572 496 q 450 518 494 518 l 448 518 q 347 488 391 518 l 347 491 q 442 643 366 557 q 562 700 515 700 q 309 1023 408 1023 q 193 958 278 1023 l 190 958 q 184 979 184 975 q 339 1150 197 1030 q 448 1183 395 1183 q 618 1023 534 1183 q 692 906 656 958 q 751 806 695 897 l 751 803 l 754 803 q 892 1034 783 836 q 1055 1194 974 1152 z "},"Y":{"ha":994,"x_min":0,"x_max":944,"o":"m 255 1150 q 591 697 395 1150 q 600 689 597 689 q 741 887 741 812 l 741 906 q 700 982 721 982 q 667 996 700 989 q 586 963 653 996 l 586 966 q 819 1139 709 1139 l 836 1139 q 944 1028 944 1112 l 944 1017 q 827 798 944 939 l 629 608 l 618 350 q 575 168 618 267 l 578 168 q 616 174 598 174 l 692 174 q 792 190 747 174 q 746 119 792 186 q 616 14 710 50 q 537 0 570 0 l 477 0 q 429 11 448 8 q 358 3 378 3 l 393 46 q 423 507 423 140 l 423 524 q 426 553 423 535 q 220 933 405 677 q 119 993 166 993 l 117 993 q 24 925 88 993 l 22 925 q 0 933 3 933 q 155 1109 67 1031 q 255 1150 207 1150 z "},"Z":{"ha":1125,"x_min":0,"x_max":1107,"o":"m 469 1194 q 779 1134 544 1194 q 890 1120 829 1123 q 1099 1177 972 1120 q 1107 1180 1104 1180 q 684 977 884 977 l 670 977 q 326 1036 576 977 l 298 1042 q 160 949 254 1042 q 144 963 149 954 l 144 968 q 288 1131 169 1037 q 469 1194 394 1194 m 1050 1080 q 1058 1072 1054 1080 q 960 987 998 1025 q 765 724 879 890 l 703 654 q 806 621 760 621 l 833 621 q 955 681 851 621 l 968 684 l 968 681 q 817 559 905 612 q 686 491 758 512 q 613 480 637 480 l 589 480 q 556 486 575 480 q 358 271 492 405 l 361 271 l 388 274 q 689 182 493 274 q 860 141 793 141 q 1072 212 952 141 l 1080 212 q 686 0 849 0 l 624 0 q 347 100 536 0 q 228 127 272 127 l 195 127 q 103 84 152 127 q 3 41 37 45 l 0 46 l 0 54 q 288 317 127 159 q 469 529 401 439 q 317 570 403 570 l 304 570 q 231 537 290 570 l 228 543 q 480 716 381 716 l 499 716 q 605 694 513 716 q 735 876 663 756 q 827 966 782 937 l 974 1047 q 1050 1080 1021 1072 z "},"[":{"ha":800,"x_min":0,"x_max":757,"o":"m 415 1128 q 602 1074 448 1128 q 632 1072 621 1072 l 651 1072 q 732 1104 690 1072 l 757 1104 l 757 1090 q 637 963 755 1069 q 486 909 559 909 q 347 949 454 909 q 304 958 330 958 l 282 958 q 266 939 279 958 q 252 705 252 777 l 252 673 q 255 627 252 659 l 260 629 l 260 545 q 250 456 250 545 q 225 263 239 315 q 182 168 201 197 q 317 220 241 220 q 524 190 345 220 q 559 187 541 187 q 681 228 627 187 l 681 225 q 548 54 646 150 q 429 0 478 5 q 222 41 237 41 q 184 43 214 43 l 176 43 q 65 19 127 43 q 24 8 33 8 l 19 8 q 0 19 5 8 q 27 62 0 31 q 65 762 52 201 q 117 909 81 854 q 222 1028 138 949 q 415 1128 350 1119 z "},"\\":{"ha":925,"x_min":0,"x_max":818,"o":"m 10 1156 q 207 1076 123 1119 q 243 1037 243 1066 l 243 1031 l 233 1029 q 184 1039 193 1039 l 184 1019 q 209 941 184 983 q 479 585 235 905 q 722 264 695 303 q 818 199 741 243 q 806 0 818 50 q 597 80 649 53 q 556 121 556 90 q 564 131 556 129 q 632 106 569 131 l 634 106 q 630 119 634 112 l 630 121 l 632 121 q 642 109 635 121 q 648 125 648 110 l 648 139 q 646 155 648 148 q 544 300 646 173 q 84 912 199 743 q 0 1103 0 1010 l 0 1117 q 10 1156 0 1137 z "},"]":{"ha":795,"x_min":0,"x_max":757,"o":"m 342 1128 q 534 1028 407 1119 q 640 909 619 949 q 692 762 676 854 q 730 62 705 201 q 757 19 757 31 q 738 8 753 8 l 732 8 q 692 19 724 8 q 581 43 630 43 l 572 43 q 534 41 543 43 q 328 0 520 41 q 209 54 279 5 q 76 225 111 150 l 76 228 q 198 187 130 187 q 233 190 216 187 q 439 220 412 220 q 575 168 515 220 q 532 263 556 197 q 507 456 518 315 q 496 545 507 545 l 496 629 l 502 627 q 505 673 505 659 l 505 705 q 491 939 505 777 q 475 958 478 958 l 453 958 q 410 949 427 958 q 271 909 302 909 q 119 963 197 909 q 0 1090 1 1069 l 0 1104 l 24 1104 q 106 1072 67 1072 l 125 1072 q 155 1074 136 1072 q 342 1128 309 1128 z "},"^":{"ha":688,"x_min":118,"x_max":522,"o":"m 193 905 q 136 958 162 926 q 118 1006 118 975 l 118 1013 q 133 1067 118 1039 q 222 1180 137 1088 q 297 1341 297 1256 q 291 1387 297 1364 l 297 1387 q 318 1370 304 1387 q 438 1204 373 1301 q 522 1021 522 1098 l 522 1009 q 494 925 522 960 l 492 925 l 421 991 q 448 1071 448 1023 l 448 1072 q 363 1251 448 1143 q 315 1147 363 1212 q 287 1114 287 1116 q 184 942 184 1015 q 203 899 184 924 l 203 898 l 202 898 l 193 905 z "},"_":{"ha":694,"x_min":0,"x_max":0,"o":""},"`":{"ha":694,"x_min":164,"x_max":439,"o":"m 169 1318 q 182 1297 180 1311 q 269 1238 212 1257 q 357 1194 313 1233 q 439 1044 395 1156 q 438 1039 438 1041 l 436 1039 q 397 1076 397 1075 q 350 1091 385 1091 q 220 1159 278 1104 q 164 1282 164 1248 l 164 1314 q 168 1318 164 1317 l 169 1318 z "},"a":{"ha":625,"x_min":0,"x_max":643,"o":"m 290 803 q 572 627 372 762 l 578 627 l 578 621 q 537 575 578 604 q 534 567 537 572 q 540 190 537 285 q 613 152 582 153 l 637 152 l 643 155 l 643 130 q 551 57 591 69 q 488 5 511 5 q 366 95 476 5 q 258 22 340 95 q 214 0 226 0 l 184 0 q 95 57 174 0 q 0 98 35 89 l 0 103 q 33 146 0 118 q 43 323 41 205 l 35 640 q 190 722 68 661 q 288 803 262 777 l 290 803 m 206 632 l 212 190 q 307 133 294 133 q 372 168 366 168 l 372 534 q 239 637 311 593 l 231 646 l 206 632 z "},"b":{"ha":675,"x_min":-3,"x_max":640,"o":"m 298 128 q 186 3 298 123 l 184 3 q 62 93 71 90 l 62 109 l 64 123 q 121 196 121 183 l 121 641 q -3 814 -3 722 q -1 817 -3 817 q 113 749 95 749 q 124 907 121 791 q 121 1080 121 1041 l 130 1080 q 292 961 285 961 l 290 947 q 287 836 290 907 q 292 782 287 828 l 292 779 q 376 842 302 779 q 439 793 384 842 q 629 665 535 713 q 631 280 631 366 q 640 153 631 186 l 640 144 l 621 123 q 469 1 503 1 l 298 128 m 298 220 q 385 150 366 150 l 390 150 q 463 210 406 150 q 466 427 466 348 l 466 459 q 463 668 466 534 l 460 668 q 295 619 351 619 q 298 389 298 475 l 298 220 z "},"c":{"ha":519,"x_min":0,"x_max":456,"o":"m 247 806 q 442 713 298 789 q 366 591 435 675 q 239 648 359 591 l 236 648 l 236 646 q 233 589 233 610 l 233 494 q 239 176 233 340 q 334 133 258 171 q 401 179 360 149 l 418 182 l 420 182 q 456 157 437 182 l 456 136 q 315 27 448 133 q 277 0 281 0 q 71 76 158 64 q 27 84 71 79 l 27 95 q 65 152 27 106 q 68 274 68 235 l 68 288 q 49 616 65 616 l 5 632 q 0 646 1 632 l 0 648 q 231 789 119 687 q 247 806 231 793 z "},"d":{"ha":675,"x_min":0,"x_max":643,"o":"m 171 -7 q 19 115 136 -7 l 0 137 l 0 145 q 8 273 8 179 q 11 658 8 359 q 201 785 104 705 q 263 834 256 834 q 347 772 338 772 l 347 774 q 353 829 353 821 q 350 940 350 899 l 347 954 q 510 1073 355 954 l 518 1073 q 515 899 518 1034 q 526 742 518 783 q 640 810 545 742 q 643 807 643 810 q 518 633 643 715 l 518 189 q 575 115 518 176 l 578 102 l 578 85 q 456 -4 569 82 l 453 -4 q 342 121 342 115 l 171 -7 m 342 213 l 342 381 q 345 612 342 467 q 179 661 289 612 l 176 661 q 174 452 174 526 l 174 419 q 176 202 174 340 q 250 142 234 142 l 255 142 q 342 213 273 142 z "},"e":{"ha":583,"x_min":0,"x_max":526,"o":"m 309 825 q 526 600 473 650 l 526 586 q 271 361 441 500 q 225 317 271 358 l 228 298 q 222 222 228 284 q 271 155 222 167 q 334 127 295 142 q 431 187 342 127 q 461 193 442 193 q 496 168 476 193 q 266 0 391 73 l 87 81 q 19 100 20 96 l 16 114 q 54 152 16 119 q 65 388 65 275 q 49 632 65 632 q 0 662 0 637 l 309 825 m 225 665 q 222 618 222 633 l 222 602 q 231 420 222 507 q 353 526 342 521 l 353 529 q 225 665 310 577 z "},"f":{"ha":403,"x_min":0,"x_max":385,"o":"m 231 1093 l 385 1061 l 385 1055 q 358 933 385 1002 l 233 960 q 228 882 228 924 l 228 854 q 231 781 228 831 l 250 779 q 304 781 274 779 q 339 754 339 777 l 336 743 q 339 697 339 715 q 331 689 335 697 q 290 692 304 692 l 285 692 q 231 678 254 692 q 236 174 233 545 q 296 125 241 174 l 304 125 q 331 141 315 125 l 334 141 q 382 109 363 141 q 345 90 382 105 q 220 0 251 0 l 201 0 q 141 49 180 0 q 24 111 121 66 l 19 119 q 57 171 19 135 q 68 426 64 248 q 62 667 65 487 q 57 684 60 684 q 3 689 47 684 q 0 735 0 721 l 0 765 q 60 779 0 772 l 60 909 q 71 974 60 974 q 228 1093 221 1093 l 231 1093 z "},"g":{"ha":678,"x_min":0,"x_max":624,"o":"m 355 801 q 570 676 378 801 q 600 646 600 666 q 559 597 600 633 l 559 573 q 553 321 559 509 q 613 74 553 166 q 624 28 624 49 l 624 -18 q 469 -200 624 -101 q 309 -243 380 -243 l 258 -243 q 3 -127 120 -243 q 0 -116 0 -122 q 144 -18 117 -18 q 187 -86 163 -29 q 309 -162 255 -162 q 437 -119 406 -162 q 453 -75 453 -94 l 453 -51 q 399 93 453 -14 q 222 1 347 79 l 214 1 q 35 115 210 7 l 35 117 q 62 153 35 119 l 62 315 q 60 633 62 431 q 355 801 174 682 m 228 614 l 228 242 q 250 193 228 201 l 328 142 q 355 136 340 136 q 396 161 369 136 q 385 551 385 467 q 366 581 385 576 q 285 641 290 641 q 266 644 274 644 q 228 614 246 644 z "},"h":{"ha":749,"x_min":0,"x_max":703,"o":"m 228 1077 l 228 1074 l 233 909 q 231 681 231 809 l 231 646 q 328 716 244 646 l 448 811 q 526 760 481 804 q 578 581 578 702 l 578 553 q 575 380 578 525 q 570 336 570 355 q 572 214 570 290 q 570 190 570 199 q 635 144 631 144 l 643 144 q 681 160 655 144 l 686 160 q 703 141 689 160 l 703 138 q 551 14 606 40 q 467 76 541 14 q 347 130 347 127 l 347 149 q 399 233 399 172 q 396 358 396 335 q 399 366 399 363 q 391 369 393 369 l 391 372 q 401 380 391 378 q 404 529 401 431 l 407 529 l 404 534 l 404 562 q 369 670 404 634 q 231 572 337 652 l 231 168 l 279 103 q 141 0 170 3 l 133 0 q 0 109 85 24 l 54 163 l 54 345 q 57 1009 54 555 l 201 1072 q 228 1077 213 1077 z "},"i":{"ha":349,"x_min":9,"x_max":334,"o":"m 134 807 q 272 707 173 787 l 272 701 q 226 650 272 695 l 223 644 q 226 256 226 365 q 229 153 226 233 q 242 142 241 142 l 250 142 q 283 167 268 167 l 302 167 q 334 134 306 167 l 334 132 q 174 -1 263 58 l 169 -1 q 12 134 131 20 q 55 178 37 142 q 63 227 63 207 l 63 251 q 55 661 63 380 q 9 704 42 667 q 134 807 41 745 m 139 1106 q 243 1002 243 1006 q 139 898 142 898 q 35 1002 35 998 q 139 1106 135 1106 z "},"j":{"ha":363,"x_min":0,"x_max":323,"o":"m 165 807 q 288 704 210 773 q 323 682 318 682 l 323 680 l 266 547 q 252 465 252 498 l 252 430 q 285 153 252 383 q 288 96 288 135 q 146 -153 288 -71 q 52 -210 87 -203 l 35 -210 l 33 -197 q 146 4 146 -99 l 146 31 q 109 208 146 59 q 90 392 90 310 l 90 430 q 122 642 90 527 l 65 690 q 14 661 26 661 l 11 661 q 0 680 0 665 l 0 682 q 41 715 0 686 q 165 807 159 807 m 173 1106 q 277 1002 277 1006 q 173 898 176 898 q 68 1002 68 998 q 173 1106 169 1106 z "},"k":{"ha":682,"x_min":0,"x_max":635,"o":"m 198 1107 q 212 1093 198 1103 q 220 640 217 884 l 231 640 q 407 808 299 703 l 420 819 q 572 662 513 734 l 412 499 q 510 363 494 431 q 567 155 528 320 l 570 155 q 616 174 605 174 q 635 141 629 174 l 635 138 q 472 0 481 1 q 407 100 437 14 q 401 133 401 125 q 418 144 418 139 q 363 266 418 193 q 317 296 336 296 q 296 317 317 299 l 288 317 q 222 263 264 317 l 222 182 q 255 90 222 110 q 282 76 277 81 l 282 71 q 195 3 265 59 l 193 3 q 0 119 93 91 l 0 130 q 38 176 0 144 q 46 212 46 190 l 46 1020 q 198 1107 102 1063 m 222 553 l 222 418 q 418 597 308 486 q 347 667 355 667 q 222 553 334 660 z "},"l":{"ha":354,"x_min":0,"x_max":347,"o":"m 201 1090 q 220 187 210 1090 q 252 157 220 182 q 296 130 280 130 l 309 130 q 334 149 321 138 l 347 130 l 347 122 q 206 0 284 54 l 201 0 q 5 109 108 81 l 0 119 q 38 160 0 134 q 54 228 46 176 l 46 1017 q 201 1090 136 1069 z "},"m":{"ha":1034,"x_min":0,"x_max":1025,"o":"m 789 814 q 914 697 810 814 q 941 648 931 675 q 930 477 930 561 q 939 163 930 431 l 966 138 l 971 138 q 1012 155 1010 155 l 1017 155 q 1025 146 1021 155 l 1025 136 q 933 46 1025 115 q 884 5 930 46 l 882 5 q 781 81 848 5 q 762 95 767 95 q 765 182 765 153 l 765 231 q 757 562 757 531 l 757 586 q 692 646 742 604 q 594 559 680 631 l 600 160 q 648 106 648 124 q 526 0 640 90 l 518 0 l 385 98 q 429 165 385 117 q 423 575 426 438 q 361 643 423 585 q 271 567 271 572 q 263 401 263 499 q 266 163 263 321 q 307 119 266 159 q 315 98 315 106 l 198 0 l 195 0 q 49 103 163 0 l 98 165 q 92 616 92 581 q 54 656 74 656 l 52 656 q 14 643 16 643 q 0 662 0 647 l 0 673 q 160 800 151 800 l 163 800 q 269 675 165 800 l 271 675 q 445 808 353 727 l 450 808 q 494 784 494 800 l 594 673 q 789 814 610 673 z "},"n":{"ha":751,"x_min":0,"x_max":694,"o":"m 426 819 q 486 787 463 819 q 605 667 489 787 q 591 475 591 552 q 594 179 591 402 q 627 138 603 155 q 675 163 642 138 l 681 163 q 694 141 694 156 l 694 133 q 532 0 644 88 l 526 0 q 415 114 440 60 l 415 119 q 429 345 429 242 q 426 610 426 496 q 342 681 404 627 q 258 613 265 616 q 255 499 255 541 l 255 171 q 307 103 307 121 l 171 0 l 165 0 q 35 114 119 29 l 95 176 q 92 521 92 397 l 92 654 q 62 686 92 661 l 57 686 q 16 673 52 686 q 0 694 0 678 q 149 811 16 705 l 168 811 q 266 694 266 728 q 426 819 320 724 z "},"o":{"ha":587,"x_min":0,"x_max":534,"o":"m 266 803 l 271 803 q 534 684 360 746 l 534 678 q 529 480 529 526 l 529 125 q 380 52 514 115 q 301 0 338 26 l 296 0 q 3 117 105 117 l 0 130 q 33 176 0 137 q 43 391 41 234 q 41 643 41 585 q 38 665 38 658 q 171 732 57 680 q 266 803 171 735 m 206 667 q 209 594 209 617 l 209 198 l 366 138 l 366 572 q 336 616 366 616 q 206 667 307 629 z "},"p":{"ha":675,"x_min":0,"x_max":643,"o":"m 472 849 q 624 727 507 849 l 643 705 l 643 697 q 635 570 635 663 q 632 184 635 484 q 442 57 538 137 q 380 8 387 8 q 296 71 305 71 l 296 68 q 290 14 290 22 q 293 -98 293 -57 l 296 -111 q 133 -231 288 -111 l 125 -231 q 127 -57 125 -191 q 117 100 125 59 q 3 33 98 100 q 0 35 0 33 q 125 209 0 127 l 125 654 q 68 727 125 667 l 65 741 l 65 757 q 187 846 74 760 l 190 846 q 301 722 301 727 l 472 849 m 301 629 l 301 461 q 298 231 301 375 q 464 182 354 231 l 467 182 q 469 391 469 316 l 469 423 q 467 640 469 502 q 393 700 409 700 l 388 700 q 301 629 370 700 z "},"q":{"ha":678,"x_min":0,"x_max":643,"o":"m 342 722 q 453 846 342 727 l 456 846 q 578 757 569 760 l 578 741 l 575 727 q 518 654 518 667 l 518 209 q 643 35 643 127 q 640 33 643 33 q 526 100 545 100 q 515 -57 518 59 q 518 -231 518 -191 l 510 -231 q 347 -111 355 -111 l 350 -98 q 353 14 350 -57 q 347 68 353 22 l 347 71 q 263 8 338 71 q 201 57 256 8 q 11 184 104 137 q 8 570 8 484 q 0 697 8 663 l 0 705 l 19 727 q 171 849 136 849 l 342 722 m 342 629 q 255 700 273 700 l 250 700 q 176 640 234 700 q 174 423 174 502 l 174 391 q 176 182 174 316 l 179 182 q 345 231 289 231 q 342 461 342 375 l 342 629 z "},"r":{"ha":543,"x_min":0,"x_max":507,"o":"m 165 819 q 279 700 241 781 l 282 700 q 429 819 301 713 q 507 681 507 742 l 507 646 q 377 507 507 588 l 366 507 l 361 510 q 369 583 369 542 l 369 600 q 334 681 369 656 q 277 632 277 636 l 269 193 q 339 130 287 163 q 342 122 342 125 l 345 122 q 380 152 346 126 q 415 174 400 174 l 420 174 q 439 163 435 174 l 439 160 q 274 19 370 83 q 250 0 263 8 l 247 0 q 106 98 172 64 q 43 125 44 121 l 43 127 q 90 179 43 134 q 103 472 103 316 q 90 670 103 670 q 71 692 81 686 l 65 692 l 22 662 q 0 681 7 662 q 122 784 0 687 l 165 819 z "},"s":{"ha":703,"x_min":0,"x_max":650,"o":"m 393 816 q 589 732 469 732 q 620 788 620 732 l 650 788 l 650 691 q 469 636 534 636 q 288 691 380 636 l 272 691 q 242 664 242 687 l 242 608 q 605 401 280 555 q 650 304 650 351 l 650 166 q 393 0 519 0 q 166 83 256 83 l 91 83 q 60 56 60 79 l 60 41 l 75 14 l 45 14 q 0 56 24 14 q 227 193 58 193 l 272 193 q 529 111 332 193 l 529 124 q 544 166 529 139 q 142 399 544 244 q 91 581 91 478 q 332 802 91 653 q 393 816 340 802 z "},"t":{"ha":423,"x_min":0,"x_max":377,"o":"m 236 1009 l 239 1009 l 241 996 l 241 784 q 282 779 267 779 l 315 779 q 372 770 372 779 l 374 754 l 374 711 q 350 686 374 686 l 347 686 q 277 692 317 686 q 236 665 236 686 q 239 643 236 658 q 236 279 236 427 q 233 184 236 255 l 307 130 q 347 160 312 130 q 358 163 352 163 l 361 163 q 377 146 372 157 l 377 133 q 212 0 368 121 l 206 0 q 49 103 123 67 q 14 125 19 103 l 14 127 q 49 168 14 137 q 71 393 71 245 q 68 526 68 460 l 68 613 q 71 681 68 636 q 14 692 59 688 q 0 705 0 703 l 0 708 q 236 1009 46 789 z "},"u":{"ha":718,"x_min":0,"x_max":673,"o":"m 155 808 q 293 692 193 791 l 244 637 q 236 190 236 250 q 290 149 273 149 l 296 149 q 415 231 308 149 q 423 632 420 418 q 372 692 414 646 q 491 803 468 792 l 496 803 q 570 749 519 803 q 632 692 608 719 l 581 629 l 581 618 q 578 182 581 473 q 621 136 578 170 q 656 144 650 144 l 662 144 q 673 133 666 144 l 673 119 q 532 5 615 60 q 518 0 532 0 q 391 117 484 4 l 380 125 q 212 0 321 91 l 206 0 l 76 98 q 30 127 30 117 q 60 160 30 141 q 76 198 76 191 l 81 637 q 52 656 62 656 l 41 656 q 19 637 31 652 q 0 662 8 637 q 54 719 0 682 q 152 808 62 734 l 155 808 z "},"v":{"ha":635,"x_min":0,"x_max":583,"o":"m 174 1015 l 187 996 l 122 925 q 117 892 117 906 l 117 879 q 212 743 117 840 q 231 705 231 714 q 217 694 225 694 q 214 298 214 382 l 372 236 l 372 328 q 374 692 372 467 q 339 738 366 705 l 442 814 l 445 814 q 583 673 490 795 l 583 667 q 575 632 583 661 q 570 136 573 136 q 345 16 443 92 q 326 0 345 14 l 312 0 q 30 125 161 125 l 30 141 q 68 182 68 173 q 79 396 76 279 l 73 635 q 0 817 0 740 q 163 1012 0 920 q 174 1015 168 1015 z "},"w":{"ha":958,"x_min":0,"x_max":920,"o":"m 168 1017 l 174 1017 q 190 998 185 1010 q 133 944 190 985 q 119 898 119 909 l 119 890 q 214 760 119 836 q 252 686 252 708 q 247 437 247 466 q 252 315 247 400 l 407 255 l 407 258 q 415 548 415 386 l 415 629 q 412 738 415 669 q 385 765 410 738 q 458 819 399 773 q 589 684 563 730 q 583 350 583 532 q 597 298 583 298 l 741 239 l 741 241 q 749 548 749 447 q 730 735 749 735 q 705 757 705 755 q 798 814 794 814 q 920 678 901 736 l 920 659 q 911 127 920 501 q 686 14 794 89 q 670 0 686 9 l 665 0 q 564 52 659 0 q 467 73 509 73 l 461 73 q 323 14 393 73 l 309 5 q 24 122 134 122 l 24 125 q 76 174 24 146 q 92 602 84 174 q 14 765 87 633 q 0 830 0 806 q 103 977 0 897 q 168 1017 130 995 z "},"x":{"ha":685,"x_min":0,"x_max":684,"o":"m 502 825 q 665 738 629 760 l 597 605 l 594 605 q 477 659 570 605 q 467 662 473 662 q 396 521 437 624 q 594 144 512 225 l 610 141 q 667 157 623 141 q 684 127 684 142 l 526 0 q 388 149 449 26 q 301 320 314 309 q 144 8 277 279 q 141 5 141 8 q 0 84 1 81 q 57 220 3 122 q 160 171 85 220 q 271 391 209 249 q 149 627 186 593 q 84 684 107 673 l 65 684 q 22 659 33 659 q 3 675 10 659 q 165 819 75 758 l 171 822 q 260 754 219 799 q 363 594 326 674 l 366 594 q 483 811 387 626 q 502 825 502 823 z "},"y":{"ha":682,"x_min":-7,"x_max":660,"o":"m 147 806 q 286 690 185 789 l 237 635 q 229 188 229 248 q 283 147 265 147 l 288 147 q 408 229 300 147 q 416 630 413 416 q 364 690 406 644 q 484 801 460 790 l 489 801 q 562 747 512 801 q 625 690 600 717 q 573 625 578 636 q 570 196 573 441 q 573 -26 573 71 q 600 -67 585 -58 l 606 -67 q 646 -43 614 -67 q 660 -62 660 -47 l 660 -75 q 519 -205 578 -154 l 513 -205 q 416 -86 426 -138 q 427 147 427 30 l 424 147 q 204 -2 231 22 l 204 -5 q 117 60 174 12 q 31 115 77 94 q 22 125 28 115 q 52 158 22 139 q 68 196 68 189 l 74 635 q 44 654 55 654 l 33 654 q 12 635 23 650 q -7 660 1 635 q 47 717 -7 680 q 144 806 55 732 l 147 806 z "},"z":{"ha":731,"x_min":0,"x_max":650,"o":"m 393 0 q 332 14 340 14 q 91 235 91 163 q 166 401 91 338 q 544 650 544 572 q 529 692 529 677 l 529 705 q 272 623 332 623 l 227 623 q 0 760 58 623 q 45 802 24 802 l 75 802 l 60 774 l 60 760 q 91 733 60 737 l 166 733 q 393 816 256 733 q 650 650 519 816 l 650 512 q 605 415 650 465 q 242 208 256 269 l 242 152 q 272 125 242 129 l 288 125 q 469 180 380 180 q 650 125 534 180 l 650 28 l 620 28 q 589 83 620 83 q 393 0 469 83 z "},"{":{"ha":491,"x_min":0,"x_max":437,"o":"m 418 1386 q 437 1370 430 1381 l 437 1367 q 239 1066 273 1185 q 176 659 176 870 q 315 144 176 352 q 420 22 394 48 q 399 0 414 7 q 209 157 364 7 q 146 233 205 166 q 0 640 0 446 l 0 684 q 323 1321 0 1045 q 418 1386 404 1386 z "},"|":{"ha":404,"x_min":12,"x_max":323,"o":"m 132 1178 q 219 947 219 1118 l 223 665 q 219 51 219 296 q 253 -14 219 16 l 255 -14 l 255 3 l 260 3 q 262 -12 260 -3 q 292 33 272 -5 l 305 46 l 310 46 q 323 14 323 33 q 194 -186 289 -53 l 191 -186 q 68 -33 147 -143 q 100 57 68 -24 q 102 652 102 416 l 102 768 q 105 888 102 812 q 68 990 105 931 l 62 990 q 28 956 31 956 l 23 956 q 12 988 12 968 q 130 1178 58 1076 l 132 1178 z "},"}":{"ha":522,"x_min":0,"x_max":437,"o":"m 19 1386 q 114 1321 33 1386 q 437 684 437 1045 l 437 640 q 290 233 437 446 q 228 157 232 166 q 38 0 73 7 q 16 22 23 7 q 122 144 43 48 q 260 659 260 352 q 198 1066 260 870 q 0 1367 164 1185 l 0 1370 q 19 1386 7 1381 z "},"~":{"ha":998,"x_min":-20,"x_max":943,"o":"m 306 822 q 615 762 380 822 q 726 749 665 751 q 935 806 809 749 q 943 808 941 808 q 520 605 869 562 l 507 605 q 162 665 413 605 l 135 670 q -3 578 91 670 q -20 591 -14 582 l -20 597 q 124 760 5 665 q 306 822 231 822 z "},"":{"ha":488,"x_min":140,"x_max":412,"o":"m 260 -143 q 140 -17 145 -17 q 170 83 140 -9 q 252 694 252 431 l 276 697 q 295 688 285 697 q 360 172 295 498 q 412 -11 412 20 l 412 -14 q 279 -162 317 -124 l 260 -143 m 265 758 q 154 890 156 875 l 154 892 q 262 1009 237 995 l 271 1009 l 385 890 q 265 758 292 768 z "},"":{"ha":594,"x_min":7,"x_max":502,"o":"m 35 1104 l 36 1104 q 149 1022 85 1074 q 155 1002 155 1013 l 151 999 q 125 1011 129 1011 l 123 1011 l 123 996 q 141 938 123 970 q 302 1006 240 1006 l 317 1006 q 397 976 335 1006 q 431 969 420 969 l 445 969 q 465 985 452 969 l 471 985 q 475 981 473 985 q 417 912 460 939 q 352 893 381 893 q 255 927 325 893 q 218 935 235 935 q 159 904 186 935 q 359 536 359 537 q 433 596 404 589 l 449 597 q 502 581 473 597 l 502 574 q 458 479 475 502 l 454 479 q 410 496 446 479 q 399 498 405 498 l 397 498 q 383 492 383 496 q 423 437 397 459 l 445 414 l 444 397 q 437 294 444 329 l 435 294 q 313 380 358 343 q 309 396 313 382 q 310 401 310 399 l 313 401 q 349 378 317 401 l 349 380 q 347 388 349 384 l 348 388 q 353 378 351 388 l 355 378 q 357 395 357 389 q 333 456 357 420 q 218 411 271 411 l 216 411 q 56 514 129 411 q 7 690 7 597 q 94 899 7 809 q 36 1026 36 1008 q 29 1074 29 1048 q 35 1104 29 1092 m 122 844 q 106 747 106 797 q 201 519 106 607 q 281 487 240 487 q 313 495 303 490 q 123 844 186 724 l 122 844 z "},"":{"ha":1017,"x_min":0,"x_max":922,"o":"m 635 1042 q 917 879 762 980 q 819 760 913 855 q 806 741 806 745 l 803 741 q 518 906 787 741 q 494 920 515 909 q 431 746 431 847 l 431 743 q 480 581 442 581 l 483 581 l 499 583 q 529 578 510 578 l 757 578 l 757 575 q 713 448 757 537 q 610 439 684 439 l 491 439 l 491 437 q 412 214 491 323 l 412 212 l 415 212 q 575 231 498 231 l 608 231 q 922 163 768 231 l 922 160 l 830 0 q 412 81 605 81 l 361 81 q 14 8 188 81 q 0 38 0 20 q 298 179 121 115 q 339 201 339 187 l 342 239 q 298 439 342 308 q 14 450 210 448 l 14 453 q 60 581 49 564 l 76 583 l 239 583 l 244 581 q 225 730 231 625 q 271 871 235 871 q 635 1042 381 932 z "},"":{"ha":621,"x_min":15,"x_max":569,"o":"m 113 1118 q 185 1089 157 1118 q 204 1039 195 1076 l 206 1039 q 284 1102 245 1078 q 365 1062 313 1099 q 393 1102 378 1102 q 449 1118 393 1110 l 466 1118 q 546 1102 505 1118 l 546 1093 q 487 1070 487 1082 q 466 1005 480 1063 q 431 980 450 980 q 454 881 454 931 l 454 861 q 412 726 454 801 l 431 726 q 491 690 480 726 q 529 619 505 619 l 569 609 l 569 602 q 492 585 569 592 l 471 585 q 384 648 400 585 q 374 678 378 678 q 286 611 319 619 l 279 611 q 202 655 248 618 q 113 583 190 583 l 95 583 q 15 598 56 583 l 15 608 q 83 655 83 615 q 122 718 98 718 q 143 724 122 721 q 116 833 116 770 l 116 848 q 155 976 116 905 l 153 976 q 94 1013 104 976 q 55 1083 79 1083 l 15 1093 l 15 1101 q 92 1118 15 1110 l 113 1118 m 225 1028 q 178 882 178 955 q 288 705 178 776 q 344 684 329 684 q 391 814 391 732 l 391 819 q 242 1024 391 968 q 225 1028 228 1028 z "},"":{"ha":1024,"x_min":0,"x_max":944,"o":"m 255 1150 q 591 697 395 1150 q 600 689 597 689 q 741 887 741 812 l 741 906 q 700 982 721 982 q 667 996 700 989 q 586 963 653 996 l 586 966 q 819 1139 709 1139 l 836 1139 q 944 1028 944 1112 l 944 1017 q 825 795 944 938 q 689 662 689 664 q 770 654 764 654 q 884 675 818 654 q 667 502 831 562 q 624 494 633 494 l 624 450 q 749 434 673 439 q 863 456 796 434 q 773 347 853 421 q 610 274 678 283 q 575 168 610 255 l 578 168 q 616 174 598 174 l 692 174 q 792 190 747 174 q 746 119 792 186 q 616 14 710 50 q 537 0 570 0 l 477 0 q 429 11 448 8 q 358 3 378 3 l 393 46 q 420 315 420 165 l 420 328 q 331 353 363 353 l 312 353 q 206 250 250 353 l 206 217 q 179 193 206 197 q 155 228 155 204 q 282 423 155 313 q 423 475 366 475 l 423 524 l 426 556 q 353 572 375 572 l 334 572 q 228 469 272 572 l 228 437 q 201 412 228 416 q 176 448 176 424 q 296 635 176 532 q 380 681 363 681 q 212 941 345 759 q 119 993 164 993 l 117 993 q 24 925 88 993 l 22 925 q 0 933 3 933 q 155 1109 67 1031 q 255 1150 207 1150 z "},"":{"ha":688,"x_min":0,"x_max":0,"o":""},"":{"ha":688,"x_min":96,"x_max":536,"o":"m 300 1225 l 305 1225 q 376 1190 312 1225 q 433 1181 410 1181 q 533 1219 486 1181 l 536 1219 l 536 1214 q 441 1081 536 1141 q 384 1067 414 1067 l 378 1067 q 264 1111 311 1067 q 237 1057 237 1097 l 237 1051 q 313 970 237 1013 q 441 913 403 942 q 519 788 519 853 q 468 631 519 721 l 468 628 q 503 541 503 585 q 381 292 503 427 q 362 283 362 286 q 202 335 267 335 q 121 300 145 335 q 96 283 111 283 l 96 286 q 186 427 96 341 q 248 441 224 441 l 270 441 q 411 397 322 441 q 435 465 435 429 q 278 587 435 529 q 132 715 132 656 l 132 728 q 205 886 132 779 q 148 959 148 922 l 148 978 q 259 1190 148 1034 q 300 1225 285 1225 m 221 807 l 221 804 q 292 726 221 769 q 435 658 385 698 l 438 658 q 452 712 452 692 q 286 837 452 777 l 243 861 q 221 807 221 845 z "},"":{"ha":694,"x_min":14,"x_max":640,"o":"m 127 1209 l 236 1098 q 127 979 236 1074 l 125 979 q 14 1093 74 1020 q 127 1209 72 1163 m 531 1221 l 640 1109 q 531 990 640 1086 l 528 990 q 417 1104 477 1031 q 531 1221 475 1175 z "},"":{"ha":1135,"x_min":0,"x_max":1161,"o":"m 600 1109 l 621 1109 q 865 1039 770 1109 q 1131 765 1006 958 q 1161 708 1161 719 q 1112 510 1112 616 l 1112 499 q 1139 350 1112 422 l 1134 350 q 993 505 1072 350 q 960 675 960 612 q 998 827 960 749 l 998 830 q 751 952 920 952 l 735 952 q 320 789 533 952 q 146 507 146 636 l 146 486 q 217 290 146 378 q 475 201 313 201 q 876 339 714 201 l 879 339 l 1055 236 q 749 14 965 85 q 640 0 681 0 l 591 0 q 149 231 367 0 l 81 326 q 0 594 0 469 l 0 605 q 252 1023 0 861 q 600 1109 408 1109 m 627 819 q 757 757 640 819 q 708 675 749 732 l 705 675 q 618 713 700 675 l 616 686 l 616 632 q 618 396 616 544 q 686 369 681 369 q 741 401 731 401 q 768 380 751 401 l 768 374 q 646 277 754 358 q 477 334 532 334 l 477 342 q 502 377 477 355 q 505 467 502 393 q 496 689 505 549 q 458 708 461 702 l 458 713 q 616 811 545 744 q 627 819 616 818 z "},"":{"ha":439,"x_min":0,"x_max":0,"o":""},"":{"ha":640,"x_min":0,"x_max":0,"o":""},"":{"ha":688,"x_min":0,"x_max":0,"o":""},"":{"ha":1305,"x_min":0,"x_max":1161,"o":"m 600 1109 l 621 1109 q 865 1039 770 1109 q 1131 765 1006 958 q 1161 708 1161 719 q 1112 510 1112 616 l 1112 499 q 1139 350 1112 422 l 1134 350 q 993 505 1072 350 q 960 675 960 612 q 998 827 960 749 l 998 830 q 751 952 920 952 l 735 952 q 320 789 533 952 q 146 507 146 636 l 146 486 q 217 290 146 378 q 475 201 313 201 q 876 339 714 201 l 879 339 l 1055 236 q 749 14 965 85 q 640 0 681 0 l 591 0 q 149 231 367 0 l 81 326 q 0 594 0 469 l 0 605 q 252 1023 0 861 q 600 1109 408 1109 m 518 882 q 600 806 559 863 q 608 787 608 790 l 610 787 l 727 882 q 781 811 771 844 q 792 765 792 786 l 792 746 q 689 632 792 696 l 673 632 q 681 697 681 663 q 651 770 681 752 l 608 735 q 600 377 605 680 q 659 323 608 360 l 662 323 q 719 361 705 361 l 727 361 q 738 355 734 355 l 738 353 q 583 220 684 290 q 418 317 476 309 q 453 363 418 330 q 467 600 467 443 q 448 773 467 773 l 437 781 q 399 754 437 778 q 385 773 385 758 l 385 779 q 515 882 402 789 l 518 882 z "},"":{"ha":454,"x_min":0,"x_max":0,"o":""},"":{"ha":457,"x_min":0,"x_max":0,"o":""},"":{"ha":688,"x_min":0,"x_max":0,"o":""},"":{"ha":688,"x_min":0,"x_max":0,"o":""},"":{"ha":688,"x_min":0,"x_max":0,"o":""},"":{"ha":694,"x_min":164,"x_max":439,"o":"m 436 1318 q 439 1314 439 1317 l 439 1282 q 384 1159 439 1248 q 254 1091 326 1104 q 206 1076 218 1091 q 168 1039 206 1075 l 165 1039 q 164 1044 165 1041 q 247 1194 209 1156 q 335 1238 291 1233 q 421 1297 392 1257 q 435 1318 424 1311 l 436 1318 z "},"":{"ha":800,"x_min":0,"x_max":0,"o":""},"":{"ha":694,"x_min":0,"x_max":0,"o":""},"":{"ha":345,"x_min":45,"x_max":267,"o":"m 159 937 l 267 826 q 159 707 267 802 l 156 707 q 45 821 105 748 q 159 937 103 891 z "},"":{"ha":694,"x_min":0,"x_max":0,"o":""},"":{"ha":688,"x_min":0,"x_max":0,"o":""},"":{"ha":487,"x_min":0,"x_max":0,"o":""},"":{"ha":640,"x_min":0,"x_max":0,"o":""},"":{"ha":1158,"x_min":0,"x_max":0,"o":""},"":{"ha":1332,"x_min":0,"x_max":0,"o":""},"":{"ha":1158,"x_min":0,"x_max":0,"o":""},"":{"ha":594,"x_min":2,"x_max":425,"o":"m 303 8 q 18 155 90 8 q 2 217 2 196 l 2 255 q 140 477 2 328 q 233 678 233 583 q 249 749 244 749 l 276 749 q 279 708 279 722 l 279 697 q 181 347 279 574 q 173 293 173 315 q 271 168 173 202 q 309 165 275 168 q 404 212 336 165 q 420 214 418 214 l 425 206 q 303 8 364 90 m 268 806 l 260 806 q 149 920 193 869 l 262 1025 l 265 1025 q 376 922 287 1017 l 376 917 q 284 822 371 892 q 268 806 284 818 z "},"":{"ha":1173,"x_min":0,"x_max":1175,"o":"m 675 1131 q 711 1096 711 1131 q 895 475 779 914 q 1034 146 998 146 q 1053 138 1040 138 l 1055 138 q 1139 171 1067 138 l 1153 171 q 1175 165 1158 171 l 1175 152 q 952 11 984 11 q 909 0 934 0 l 901 0 q 792 117 835 0 q 716 363 751 239 q 697 418 697 410 q 545 350 600 350 q 445 391 486 350 q 388 423 405 423 l 372 423 q 326 363 340 423 q 206 141 252 168 l 206 138 q 288 157 248 157 q 420 155 400 155 q 507 176 467 155 l 510 176 q 396 43 487 101 q 255 3 320 3 l 79 22 q 0 8 33 19 l 0 16 q 46 73 0 33 q 285 675 151 314 q 415 966 357 850 q 575 1088 484 1054 q 675 1131 582 1094 m 518 1107 q 304 960 364 960 l 282 960 q 222 982 248 960 q 84 1009 171 1009 l 84 1015 q 236 1096 128 1096 l 385 1088 q 513 1107 418 1088 l 518 1107 m 551 901 q 399 521 499 793 q 496 572 468 572 l 499 572 q 616 518 527 572 q 667 507 642 507 q 553 901 656 556 l 551 901 m 340 1405 q 353 1385 351 1398 q 439 1326 382 1344 q 528 1282 484 1320 q 610 1131 566 1243 q 609 1126 609 1128 l 607 1126 q 568 1164 568 1162 q 521 1179 556 1179 q 391 1246 449 1192 q 335 1370 335 1335 l 335 1402 q 338 1405 335 1404 l 340 1405 z "},"":{"ha":1173,"x_min":0,"x_max":1175,"o":"m 675 1131 q 711 1096 711 1131 q 895 475 779 914 q 1034 146 998 146 q 1053 138 1040 138 l 1055 138 q 1139 171 1067 138 l 1153 171 q 1175 165 1158 171 l 1175 152 q 952 11 984 11 q 909 0 934 0 l 901 0 q 792 117 835 0 q 716 363 751 239 q 697 418 697 410 q 545 350 600 350 q 445 391 486 350 q 388 423 405 423 l 372 423 q 326 363 340 423 q 206 141 252 168 l 206 138 q 288 157 248 157 q 420 155 400 155 q 507 176 467 155 l 510 176 q 396 43 487 101 q 255 3 320 3 l 79 22 q 0 8 33 19 l 0 16 q 46 73 0 33 q 285 675 151 314 q 415 966 357 850 q 575 1088 484 1054 q 675 1131 582 1094 m 518 1107 q 304 960 364 960 l 282 960 q 222 982 248 960 q 84 1009 171 1009 l 84 1015 q 236 1096 128 1096 l 385 1088 q 513 1107 418 1088 l 518 1107 m 551 901 q 399 521 499 793 q 496 572 468 572 l 499 572 q 616 518 527 572 q 667 507 642 507 q 553 901 656 556 l 551 901 m 811 1417 q 814 1414 814 1417 l 814 1382 q 759 1259 814 1348 q 629 1191 701 1204 q 581 1176 593 1191 q 543 1139 581 1175 l 541 1139 q 539 1143 541 1141 q 622 1294 584 1255 q 710 1338 666 1333 q 796 1397 767 1356 q 810 1417 799 1411 l 811 1417 z "},"":{"ha":1173,"x_min":0,"x_max":1175,"o":"m 675 1131 q 711 1096 711 1131 q 895 475 779 914 q 1034 146 998 146 q 1053 138 1040 138 l 1055 138 q 1139 171 1067 138 l 1153 171 q 1175 165 1158 171 l 1175 152 q 952 11 984 11 q 909 0 934 0 l 901 0 q 792 117 835 0 q 716 363 751 239 q 697 418 697 410 q 545 350 600 350 q 445 391 486 350 q 388 423 405 423 l 372 423 q 326 363 340 423 q 206 141 252 168 l 206 138 q 288 157 248 157 q 420 155 400 155 q 507 176 467 155 l 510 176 q 396 43 487 101 q 255 3 320 3 l 79 22 q 0 8 33 19 l 0 16 q 46 73 0 33 q 285 675 151 314 q 415 966 357 850 q 575 1088 484 1054 q 675 1131 582 1094 m 518 1107 q 304 960 364 960 l 282 960 q 222 982 248 960 q 84 1009 171 1009 l 84 1015 q 236 1096 128 1096 l 385 1088 q 513 1107 418 1088 l 518 1107 m 551 901 q 399 521 499 793 q 496 572 468 572 l 499 572 q 616 518 527 572 q 667 507 642 507 q 553 901 656 556 l 551 901 m 535 1403 l 535 1405 q 538 1409 535 1408 q 547 1417 541 1413 l 548 1417 q 551 1413 551 1416 l 551 1395 q 553 1388 553 1392 q 640 1329 583 1348 q 728 1285 684 1324 q 810 1135 766 1246 q 809 1130 809 1132 l 807 1130 q 768 1167 768 1166 q 721 1182 756 1182 q 591 1250 649 1195 q 542 1343 554 1308 q 496 1258 528 1310 q 366 1190 437 1203 q 318 1175 330 1190 q 279 1138 318 1174 l 277 1138 q 276 1143 277 1140 q 359 1293 321 1255 q 447 1337 403 1332 q 533 1396 504 1356 q 535 1403 534 1400 z "},"":{"ha":1173,"x_min":0,"x_max":1175,"o":"m 675 1131 q 711 1096 711 1131 q 895 475 779 914 q 1034 146 998 146 q 1053 138 1040 138 l 1055 138 q 1139 171 1067 138 l 1153 171 q 1175 165 1158 171 l 1175 152 q 952 11 984 11 q 909 0 934 0 l 901 0 q 792 117 835 0 q 716 363 751 239 q 697 418 697 410 q 545 350 600 350 q 445 391 486 350 q 388 423 405 423 l 372 423 q 326 363 340 423 q 206 141 252 168 l 206 138 q 288 157 248 157 q 420 155 400 155 q 507 176 467 155 l 510 176 q 396 43 487 101 q 255 3 320 3 l 79 22 q 0 8 33 19 l 0 16 q 46 73 0 33 q 285 675 151 314 q 415 966 357 850 q 575 1088 484 1054 q 675 1131 582 1094 m 518 1107 q 304 960 364 960 l 282 960 q 222 982 248 960 q 84 1009 171 1009 l 84 1015 q 236 1096 128 1096 l 385 1088 q 513 1107 418 1088 l 518 1107 m 551 901 q 399 521 499 793 q 496 572 468 572 l 499 572 q 616 518 527 572 q 667 507 642 507 q 553 901 656 556 l 551 901 m 394 1344 q 597 1305 443 1344 q 669 1296 629 1298 q 806 1333 724 1296 q 812 1335 810 1335 q 534 1202 763 1173 l 526 1202 q 300 1241 464 1202 l 281 1244 q 191 1184 253 1244 q 180 1193 184 1187 l 180 1196 q 275 1303 197 1241 q 394 1344 345 1344 z "},"":{"ha":1173,"x_min":0,"x_max":1175,"o":"m 675 1131 q 711 1096 711 1131 q 895 475 779 914 q 1034 146 998 146 q 1053 138 1040 138 l 1055 138 q 1139 171 1067 138 l 1153 171 q 1175 165 1158 171 l 1175 152 q 952 11 984 11 q 909 0 934 0 l 901 0 q 792 117 835 0 q 716 363 751 239 q 697 418 697 410 q 545 350 600 350 q 445 391 486 350 q 388 423 405 423 l 372 423 q 326 363 340 423 q 206 141 252 168 l 206 138 q 288 157 248 157 q 420 155 400 155 q 507 176 467 155 l 510 176 q 396 43 487 101 q 255 3 320 3 l 79 22 q 0 8 33 19 l 0 16 q 46 73 0 33 q 285 675 151 314 q 415 966 357 850 q 575 1088 484 1054 q 675 1131 582 1094 m 518 1107 q 304 960 364 960 l 282 960 q 222 982 248 960 q 84 1009 171 1009 l 84 1015 q 236 1096 128 1096 l 385 1088 q 513 1107 418 1088 l 518 1107 m 551 901 q 399 521 499 793 q 496 572 468 572 l 499 572 q 616 518 527 572 q 667 507 642 507 q 553 901 656 556 l 551 901 m 199 1301 q 319 1409 290 1409 q 427 1306 390 1347 l 427 1293 q 316 1190 323 1192 l 313 1190 q 199 1301 270 1217 m 593 1309 l 704 1417 q 823 1309 728 1417 l 823 1306 q 709 1195 782 1255 q 593 1309 639 1253 m 593 1309 l 704 1417 q 823 1309 728 1417 l 823 1306 q 709 1195 782 1255 q 593 1309 639 1253 z "},"":{"ha":1173,"x_min":0,"x_max":1175,"o":"m 675 1131 q 711 1096 711 1131 q 895 475 779 914 q 1034 146 998 146 q 1053 138 1040 138 l 1055 138 q 1139 171 1067 138 l 1153 171 q 1175 165 1158 171 l 1175 152 q 952 11 984 11 q 909 0 934 0 l 901 0 q 792 117 835 0 q 716 363 751 239 q 697 418 697 410 q 545 350 600 350 q 445 391 486 350 q 388 423 405 423 l 372 423 q 326 363 340 423 q 206 141 252 168 l 206 138 q 288 157 248 157 q 420 155 400 155 q 507 176 467 155 l 510 176 q 396 43 487 101 q 255 3 320 3 l 79 22 q 0 8 33 19 l 0 16 q 46 73 0 33 q 285 675 151 314 q 415 966 357 850 q 575 1088 484 1054 q 675 1131 582 1094 m 518 1107 q 304 960 364 960 l 282 960 q 222 982 248 960 q 84 1009 171 1009 l 84 1015 q 236 1096 128 1096 l 385 1088 q 513 1107 418 1088 l 518 1107 m 551 901 q 399 521 499 793 q 496 572 468 572 l 499 572 q 616 518 527 572 q 667 507 642 507 q 553 901 656 556 l 551 901 z "},"":{"ha":1706,"x_min":0,"x_max":1630,"o":"m 675 1131 q 711 1096 711 1131 q 898 467 779 912 q 925 380 903 459 q 930 385 930 380 q 960 841 937 841 q 1177 1085 1013 985 q 1291 1131 1269 1131 q 1478 1077 1324 1131 q 1508 1074 1497 1074 l 1527 1074 q 1609 1107 1566 1074 l 1630 1107 l 1630 1082 q 1362 911 1490 911 q 1223 952 1331 911 q 1180 960 1206 960 l 1158 960 q 1142 941 1155 960 q 1128 708 1128 780 l 1128 675 q 1131 629 1128 661 q 1256 711 1206 711 q 1373 656 1286 711 q 1400 648 1387 648 l 1416 648 q 1506 694 1432 648 q 1516 686 1516 690 l 1516 684 q 1394 521 1495 618 q 1294 480 1332 480 l 1286 480 q 1150 543 1247 480 q 1131 545 1141 545 q 1093 250 1112 250 q 1058 171 1092 228 q 1194 222 1118 222 q 1400 193 1221 222 q 1435 190 1417 190 q 1557 231 1503 190 l 1557 228 q 1424 57 1522 153 q 1305 3 1354 7 q 1099 43 1113 43 q 1061 46 1090 46 l 1034 46 q 963 14 1029 46 q 909 0 930 0 l 901 0 q 792 117 835 0 q 716 363 751 239 q 697 418 697 410 q 545 350 600 350 q 445 391 486 350 q 388 423 405 423 l 372 423 q 326 363 340 423 q 206 141 252 168 l 206 138 q 288 157 248 157 q 420 155 400 155 q 507 176 467 155 l 510 176 q 396 43 487 101 q 255 3 320 3 l 79 22 q 0 8 33 19 l 0 16 q 46 73 0 33 q 285 675 151 314 q 415 966 357 850 q 575 1088 484 1054 q 675 1131 582 1094 m 551 901 q 399 521 499 793 q 496 572 468 572 l 499 572 q 616 518 527 572 q 667 507 642 507 q 553 901 656 556 l 551 901 z "},"":{"ha":949,"x_min":0,"x_max":0,"o":""},"":{"ha":1141,"x_min":-4,"x_max":1062,"o":"m 522 1130 q 555 1116 543 1130 l 555 1114 q 332 924 433 924 l 313 924 q 159 970 268 924 q 126 972 140 972 q 56 902 56 961 q 12 837 56 837 l 9 837 q -4 867 1 837 q 66 1029 1 928 q 205 1114 136 1114 l 224 1114 q 395 1095 243 1114 l 425 1095 q 522 1130 476 1095 m 720 1124 q 907 1070 753 1124 q 937 1067 926 1067 l 956 1067 q 1038 1100 995 1067 l 1062 1100 l 1062 1086 q 943 959 1061 1065 q 791 905 865 905 q 652 945 760 905 q 609 954 635 954 l 587 954 q 571 935 584 954 q 557 701 557 773 l 557 669 q 560 623 557 654 q 685 704 635 704 q 802 650 715 704 q 829 642 816 642 l 845 642 q 935 688 861 642 q 945 680 945 684 l 945 677 q 823 514 924 611 q 723 473 761 473 l 715 473 q 579 536 676 473 q 560 538 570 538 q 522 243 541 243 q 487 164 521 221 q 623 216 547 216 q 829 186 650 216 q 864 183 846 183 q 986 224 932 183 l 986 221 q 853 50 951 146 q 734 -4 783 1 q 528 37 542 37 q 490 39 519 39 l 481 39 q 370 15 432 39 q 330 4 338 4 l 324 4 q 305 15 310 4 q 332 58 305 26 q 370 758 357 197 q 422 905 386 850 q 528 1024 443 945 q 720 1124 655 1115 m 452 1413 q 465 1392 463 1406 q 551 1333 494 1352 q 640 1289 595 1328 q 722 1139 677 1251 q 721 1134 721 1136 l 719 1134 q 680 1171 680 1170 q 633 1186 668 1186 q 503 1254 561 1199 q 447 1377 447 1343 l 447 1409 q 450 1413 447 1412 l 452 1413 z "},"":{"ha":1141,"x_min":-4,"x_max":1062,"o":"m 522 1130 q 555 1116 543 1130 l 555 1114 q 332 924 433 924 l 313 924 q 159 970 268 924 q 126 972 140 972 q 56 902 56 961 q 12 837 56 837 l 9 837 q -4 867 1 837 q 66 1029 1 928 q 205 1114 136 1114 l 224 1114 q 395 1095 243 1114 l 425 1095 q 522 1130 476 1095 m 720 1124 q 907 1070 753 1124 q 937 1067 926 1067 l 956 1067 q 1038 1100 995 1067 l 1062 1100 l 1062 1086 q 943 959 1061 1065 q 791 905 865 905 q 652 945 760 905 q 609 954 635 954 l 587 954 q 571 935 584 954 q 557 701 557 773 l 557 669 q 560 623 557 654 q 685 704 635 704 q 802 650 715 704 q 829 642 816 642 l 845 642 q 935 688 861 642 q 945 680 945 684 l 945 677 q 823 514 924 611 q 723 473 761 473 l 715 473 q 579 536 676 473 q 560 538 570 538 q 522 243 541 243 q 487 164 521 221 q 623 216 547 216 q 829 186 650 216 q 864 183 846 183 q 986 224 932 183 l 986 221 q 853 50 951 146 q 734 -4 783 1 q 528 37 542 37 q 490 39 519 39 l 481 39 q 370 15 432 39 q 330 4 338 4 l 324 4 q 305 15 310 4 q 332 58 305 26 q 370 758 357 197 q 422 905 386 850 q 528 1024 443 945 q 720 1124 655 1115 m 883 1402 q 886 1398 886 1401 l 886 1367 q 831 1243 886 1332 q 701 1175 772 1188 q 653 1160 665 1175 q 614 1123 653 1159 l 612 1123 q 611 1128 612 1125 q 694 1278 656 1240 q 782 1322 738 1317 q 868 1381 839 1341 q 882 1402 871 1395 l 883 1402 z "},"":{"ha":1141,"x_min":-4,"x_max":1062,"o":"m 522 1130 q 555 1116 543 1130 l 555 1114 q 332 924 433 924 l 313 924 q 159 970 268 924 q 126 972 140 972 q 56 902 56 961 q 12 837 56 837 l 9 837 q -4 867 1 837 q 66 1029 1 928 q 205 1114 136 1114 l 224 1114 q 395 1095 243 1114 l 425 1095 q 522 1130 476 1095 m 720 1124 q 907 1070 753 1124 q 937 1067 926 1067 l 956 1067 q 1038 1100 995 1067 l 1062 1100 l 1062 1086 q 943 959 1061 1065 q 791 905 865 905 q 652 945 760 905 q 609 954 635 954 l 587 954 q 571 935 584 954 q 557 701 557 773 l 557 669 q 560 623 557 654 q 685 704 635 704 q 802 650 715 704 q 829 642 816 642 l 845 642 q 935 688 861 642 q 945 680 945 684 l 945 677 q 823 514 924 611 q 723 473 761 473 l 715 473 q 579 536 676 473 q 560 538 570 538 q 522 243 541 243 q 487 164 521 221 q 623 216 547 216 q 829 186 650 216 q 864 183 846 183 q 986 224 932 183 l 986 221 q 853 50 951 146 q 734 -4 783 1 q 528 37 542 37 q 490 39 519 39 l 481 39 q 370 15 432 39 q 330 4 338 4 l 324 4 q 305 15 310 4 q 332 58 305 26 q 370 758 357 197 q 422 905 386 850 q 528 1024 443 945 q 720 1124 655 1115 m 631 1395 l 631 1397 q 633 1400 631 1400 q 642 1409 637 1405 l 644 1409 q 647 1405 647 1408 l 647 1387 q 649 1380 648 1383 q 735 1321 678 1339 q 823 1277 779 1316 q 906 1126 861 1238 q 905 1122 905 1124 l 903 1122 q 864 1159 864 1158 q 817 1174 852 1174 q 686 1242 745 1187 q 637 1335 650 1300 q 591 1250 624 1301 q 461 1182 533 1195 q 414 1167 426 1182 q 375 1130 414 1166 l 373 1130 q 372 1135 373 1132 q 454 1285 416 1246 q 543 1329 498 1324 q 629 1388 600 1348 q 631 1395 629 1392 z "},"":{"ha":1141,"x_min":-4,"x_max":1062,"o":"m 522 1130 q 555 1116 543 1130 l 555 1114 q 332 924 433 924 l 313 924 q 159 970 268 924 q 126 972 140 972 q 56 902 56 961 q 12 837 56 837 l 9 837 q -4 867 1 837 q 66 1029 1 928 q 205 1114 136 1114 l 224 1114 q 395 1095 243 1114 l 425 1095 q 522 1130 476 1095 m 720 1124 q 907 1070 753 1124 q 937 1067 926 1067 l 956 1067 q 1038 1100 995 1067 l 1062 1100 l 1062 1086 q 943 959 1061 1065 q 791 905 865 905 q 652 945 760 905 q 609 954 635 954 l 587 954 q 571 935 584 954 q 557 701 557 773 l 557 669 q 560 623 557 654 q 685 704 635 704 q 802 650 715 704 q 829 642 816 642 l 845 642 q 935 688 861 642 q 945 680 945 684 l 945 677 q 823 514 924 611 q 723 473 761 473 l 715 473 q 579 536 676 473 q 560 538 570 538 q 522 243 541 243 q 487 164 521 221 q 623 216 547 216 q 829 186 650 216 q 864 183 846 183 q 986 224 932 183 l 986 221 q 853 50 951 146 q 734 -4 783 1 q 528 37 542 37 q 490 39 519 39 l 481 39 q 370 15 432 39 q 330 4 338 4 l 324 4 q 305 15 310 4 q 332 58 305 26 q 370 758 357 197 q 422 905 386 850 q 528 1024 443 945 q 720 1124 655 1115 m 279 1277 q 399 1385 370 1385 q 507 1282 470 1323 l 507 1269 q 396 1166 404 1168 l 393 1166 q 279 1277 350 1193 m 673 1285 l 784 1394 q 903 1285 808 1394 l 903 1282 q 789 1171 862 1232 q 673 1285 719 1230 m 673 1285 l 784 1394 q 903 1285 808 1394 l 903 1282 q 789 1171 862 1232 q 673 1285 719 1230 z "},"":{"ha":779,"x_min":-1,"x_max":737,"o":"m 233 1150 l 279 1150 q 420 1107 308 1150 q 479 1099 454 1099 q 602 1123 500 1099 q 355 955 433 955 l 330 955 q 186 1006 287 955 q 132 1020 157 1020 q 56 960 79 1020 q 43 892 51 952 l 37 890 l 26 890 q -1 949 -1 890 q 149 1134 -1 1050 q 233 1150 191 1150 m 710 1134 l 718 1123 l 615 1025 q 558 887 583 981 q 520 380 534 812 q 482 206 503 233 q 444 149 482 197 l 444 146 q 534 171 479 171 l 542 171 q 688 163 554 171 q 724 179 694 163 l 726 179 q 737 165 737 176 q 523 0 620 0 l 507 0 q 338 19 465 0 l 328 19 q 260 3 301 19 l 249 3 l 249 8 q 279 71 249 25 q 328 477 311 180 q 357 800 339 800 q 669 1120 450 1021 q 710 1134 707 1134 m 260 1421 q 273 1400 271 1414 q 359 1341 302 1360 q 448 1297 404 1336 q 530 1147 486 1259 q 529 1142 529 1144 l 527 1142 q 488 1179 488 1178 q 441 1194 476 1194 q 311 1262 369 1207 q 255 1385 255 1351 l 255 1417 q 258 1421 255 1420 l 260 1421 z "},"":{"ha":779,"x_min":-1,"x_max":739,"o":"m 233 1150 l 279 1150 q 420 1107 308 1150 q 479 1099 454 1099 q 602 1123 500 1099 q 355 955 433 955 l 330 955 q 186 1006 287 955 q 132 1020 157 1020 q 56 960 79 1020 q 43 892 51 952 l 37 890 l 26 890 q -1 949 -1 890 q 149 1134 -1 1050 q 233 1150 191 1150 m 710 1134 l 718 1123 l 615 1025 q 558 887 583 981 q 520 380 534 812 q 482 206 503 233 q 444 149 482 197 l 444 146 q 534 171 479 171 l 542 171 q 688 163 554 171 q 724 179 694 163 l 726 179 q 737 165 737 176 q 523 0 620 0 l 507 0 q 338 19 465 0 l 328 19 q 260 3 301 19 l 249 3 l 249 8 q 279 71 249 25 q 328 477 311 180 q 357 800 339 800 q 669 1120 450 1021 q 710 1134 707 1134 m 736 1418 q 739 1415 739 1417 l 739 1383 q 684 1259 739 1348 q 553 1192 625 1204 q 506 1177 518 1192 q 467 1139 506 1175 l 465 1139 q 464 1144 465 1141 q 547 1295 509 1256 q 635 1339 591 1333 q 721 1398 692 1357 q 734 1418 724 1411 l 736 1418 z "},"":{"ha":779,"x_min":-1,"x_max":737,"o":"m 233 1150 l 279 1150 q 420 1107 308 1150 q 479 1099 454 1099 q 602 1123 500 1099 q 355 955 433 955 l 330 955 q 186 1006 287 955 q 132 1020 157 1020 q 56 960 79 1020 q 43 892 51 952 l 37 890 l 26 890 q -1 949 -1 890 q 149 1134 -1 1050 q 233 1150 191 1150 m 710 1134 l 718 1123 l 615 1025 q 558 887 583 981 q 520 380 534 812 q 482 206 503 233 q 444 149 482 197 l 444 146 q 534 171 479 171 l 542 171 q 688 163 554 171 q 724 179 694 163 l 726 179 q 737 165 737 176 q 523 0 620 0 l 507 0 q 338 19 465 0 l 328 19 q 260 3 301 19 l 249 3 l 249 8 q 279 71 249 25 q 328 477 311 180 q 357 800 339 800 q 669 1120 450 1021 q 710 1134 707 1134 m 419 1407 l 419 1409 q 422 1413 419 1412 q 431 1421 425 1417 l 432 1421 q 435 1417 435 1420 l 435 1399 q 437 1392 437 1396 q 524 1333 467 1352 q 612 1289 568 1328 q 694 1139 650 1251 q 693 1134 693 1136 l 691 1134 q 652 1171 652 1170 q 605 1186 640 1186 q 475 1254 533 1199 q 426 1347 438 1312 q 380 1262 412 1314 q 250 1194 321 1207 q 202 1179 214 1194 q 163 1142 202 1178 l 161 1142 q 160 1147 161 1144 q 243 1297 205 1259 q 331 1341 287 1336 q 417 1400 388 1360 q 419 1407 418 1404 z "},"":{"ha":779,"x_min":-1,"x_max":737,"o":"m 233 1150 l 279 1150 q 420 1107 308 1150 q 479 1099 454 1099 q 602 1123 500 1099 q 355 955 433 955 l 330 955 q 186 1006 287 955 q 132 1020 157 1020 q 56 960 79 1020 q 43 892 51 952 l 37 890 l 26 890 q -1 949 -1 890 q 149 1134 -1 1050 q 233 1150 191 1150 m 710 1134 l 718 1123 l 615 1025 q 558 887 583 981 q 520 380 534 812 q 482 206 503 233 q 444 149 482 197 l 444 146 q 534 171 479 171 l 542 171 q 688 163 554 171 q 724 179 694 163 l 726 179 q 737 165 737 176 q 523 0 620 0 l 507 0 q 338 19 465 0 l 328 19 q 260 3 301 19 l 249 3 l 249 8 q 279 71 249 25 q 328 477 311 180 q 357 800 339 800 q 669 1120 450 1021 q 710 1134 707 1134 m 43 1285 q 163 1394 134 1394 q 271 1291 234 1331 l 271 1277 q 160 1174 168 1176 l 157 1174 q 43 1285 114 1201 m 437 1293 l 548 1402 q 667 1293 572 1402 l 667 1291 q 553 1179 626 1240 q 437 1293 483 1238 m 437 1293 l 548 1402 q 667 1293 572 1402 l 667 1291 q 553 1179 626 1240 q 437 1293 483 1238 z "},"":{"ha":1029,"x_min":0,"x_max":0,"o":""},"":{"ha":1281,"x_min":1,"x_max":1259,"o":"m 874 1158 q 1121 1017 987 1158 q 1205 732 1205 899 q 977 247 1205 475 q 909 174 909 178 l 945 174 q 1091 165 957 174 l 1099 165 q 1221 206 1164 165 l 1259 225 l 1259 222 q 1183 157 1259 204 q 975 19 1048 35 q 931 11 931 13 l 899 14 l 692 14 q 684 30 684 16 q 766 117 684 56 q 1010 605 1010 343 q 939 865 1010 756 q 760 998 873 961 q 736 1001 745 1001 l 725 1001 q 682 963 688 1001 q 654 461 654 897 q 622 258 654 401 q 408 57 583 167 q 310 -3 341 -3 l 277 -3 q 144 52 259 -3 q 112 57 125 57 l 96 57 q 31 0 48 57 l 25 -3 l 12 -3 q 1 30 1 -3 q 123 195 1 86 q 226 233 180 233 l 237 233 q 375 176 283 233 q 429 163 409 163 q 440 290 440 163 l 440 320 q 437 556 440 431 q 603 1036 437 901 q 874 1158 758 1158 m 302 1145 l 307 1145 q 484 1093 356 1145 q 524 1088 509 1088 l 535 1088 q 635 1115 563 1088 q 657 1118 646 1118 l 657 1112 q 516 996 648 1112 q 399 944 450 944 l 378 944 q 229 993 338 944 q 204 996 214 996 l 188 996 q 98 863 121 996 q 79 849 94 849 q 52 911 60 849 l 52 917 q 201 1120 52 1025 q 302 1145 254 1145 m 658 1356 q 861 1317 707 1356 q 933 1308 893 1310 q 1070 1345 987 1308 q 1076 1348 1074 1348 q 798 1214 1027 1185 l 789 1214 q 564 1253 728 1214 l 545 1257 q 455 1196 517 1257 q 444 1205 448 1199 l 444 1208 q 538 1316 460 1253 q 658 1356 608 1356 z "},"":{"ha":1141,"x_min":0,"x_max":1112,"o":"m 420 1161 q 640 1104 524 1104 q 779 1126 697 1104 q 635 993 779 1065 q 456 960 541 960 q 296 1004 372 960 q 163 751 163 924 l 163 711 q 293 347 163 549 q 610 138 448 138 q 789 190 701 138 q 903 472 903 285 l 903 491 q 787 857 903 703 q 667 922 716 922 q 616 917 658 922 q 659 963 616 935 q 808 1066 759 1065 l 825 1066 q 1023 906 898 1066 q 1112 616 1112 765 q 860 133 1112 341 q 681 33 760 58 q 551 0 607 0 l 461 0 q 163 144 315 0 q 0 570 0 321 l 0 605 q 54 838 0 753 q 225 1039 83 908 q 420 1161 355 1138 m 340 1405 q 353 1385 351 1398 q 439 1326 382 1344 q 528 1282 484 1320 q 610 1131 566 1243 q 609 1126 609 1128 l 607 1126 q 568 1164 568 1162 q 521 1179 556 1179 q 391 1246 449 1192 q 335 1370 335 1335 l 335 1402 q 338 1405 335 1404 l 340 1405 z "},"":{"ha":1141,"x_min":0,"x_max":1112,"o":"m 420 1161 q 640 1104 524 1104 q 779 1126 697 1104 q 635 993 779 1065 q 456 960 541 960 q 296 1004 372 960 q 163 751 163 924 l 163 711 q 293 347 163 549 q 610 138 448 138 q 789 190 701 138 q 903 472 903 285 l 903 491 q 787 857 903 703 q 667 922 716 922 q 616 917 658 922 q 659 963 616 935 q 808 1066 759 1065 l 825 1066 q 1023 906 898 1066 q 1112 616 1112 765 q 860 133 1112 341 q 681 33 760 58 q 551 0 607 0 l 461 0 q 163 144 315 0 q 0 570 0 321 l 0 605 q 54 838 0 753 q 225 1039 83 908 q 420 1161 355 1138 m 811 1417 q 814 1414 814 1417 l 814 1382 q 759 1259 814 1348 q 629 1191 701 1204 q 581 1176 593 1191 q 543 1139 581 1175 l 541 1139 q 539 1143 541 1141 q 622 1294 584 1255 q 710 1338 666 1333 q 796 1397 767 1356 q 810 1417 799 1411 l 811 1417 z "},"":{"ha":1141,"x_min":0,"x_max":1112,"o":"m 420 1161 q 640 1104 524 1104 q 779 1126 697 1104 q 635 993 779 1065 q 456 960 541 960 q 296 1004 372 960 q 163 751 163 924 l 163 711 q 293 347 163 549 q 610 138 448 138 q 789 190 701 138 q 903 472 903 285 l 903 491 q 787 857 903 703 q 667 922 716 922 q 616 917 658 922 q 659 963 616 935 q 808 1066 759 1065 l 825 1066 q 1023 906 898 1066 q 1112 616 1112 765 q 860 133 1112 341 q 681 33 760 58 q 551 0 607 0 l 461 0 q 163 144 315 0 q 0 570 0 321 l 0 605 q 54 838 0 753 q 225 1039 83 908 q 420 1161 355 1138 m 535 1403 l 535 1405 q 538 1409 535 1408 q 547 1417 541 1413 l 548 1417 q 551 1413 551 1416 l 551 1395 q 553 1388 553 1392 q 640 1329 583 1348 q 728 1285 684 1324 q 810 1135 766 1246 q 809 1130 809 1132 l 807 1130 q 768 1167 768 1166 q 721 1182 756 1182 q 591 1250 649 1195 q 542 1343 554 1308 q 496 1258 528 1310 q 366 1190 437 1203 q 318 1175 330 1190 q 279 1138 318 1174 l 277 1138 q 276 1143 277 1140 q 359 1293 321 1255 q 447 1337 403 1332 q 533 1396 504 1356 q 535 1403 534 1400 z "},"":{"ha":1141,"x_min":0,"x_max":1112,"o":"m 420 1161 q 640 1104 524 1104 q 779 1126 697 1104 q 635 993 779 1065 q 456 960 541 960 q 296 1004 372 960 q 163 751 163 924 l 163 711 q 293 347 163 549 q 610 138 448 138 q 789 190 701 138 q 903 472 903 285 l 903 491 q 787 857 903 703 q 667 922 716 922 q 616 917 658 922 q 659 963 616 935 q 808 1066 759 1065 l 825 1066 q 1023 906 898 1066 q 1112 616 1112 765 q 860 133 1112 341 q 681 33 760 58 q 551 0 607 0 l 461 0 q 163 144 315 0 q 0 570 0 321 l 0 605 q 54 838 0 753 q 225 1039 83 908 q 420 1161 355 1138 m 462 1364 q 665 1325 511 1364 q 737 1316 697 1318 q 874 1354 791 1316 q 880 1356 878 1356 q 602 1222 831 1194 l 593 1222 q 368 1261 532 1222 l 349 1265 q 259 1204 321 1265 q 248 1213 252 1207 l 248 1217 q 342 1324 264 1261 q 462 1364 412 1364 z "},"":{"ha":1141,"x_min":0,"x_max":1112,"o":"m 420 1161 q 640 1104 524 1104 q 779 1126 697 1104 q 635 993 779 1065 q 456 960 541 960 q 296 1004 372 960 q 163 751 163 924 l 163 711 q 293 347 163 549 q 610 138 448 138 q 789 190 701 138 q 903 472 903 285 l 903 491 q 787 857 903 703 q 667 922 716 922 q 616 917 658 922 q 659 963 616 935 q 808 1066 759 1065 l 825 1066 q 1023 906 898 1066 q 1112 616 1112 765 q 860 133 1112 341 q 681 33 760 58 q 551 0 607 0 l 461 0 q 163 144 315 0 q 0 570 0 321 l 0 605 q 54 838 0 753 q 225 1039 83 908 q 420 1161 355 1138 m 203 1289 q 323 1397 294 1397 q 431 1294 394 1335 l 431 1280 q 320 1177 328 1179 l 317 1177 q 203 1289 274 1204 m 597 1297 l 708 1405 q 827 1297 732 1405 l 827 1294 q 713 1183 786 1243 q 597 1297 643 1241 m 597 1297 l 708 1405 q 827 1297 732 1405 l 827 1294 q 713 1183 786 1243 q 597 1297 643 1241 z "},"":{"ha":688,"x_min":0,"x_max":0,"o":""},"":{"ha":1095,"x_min":0,"x_max":1169,"o":"m 1055 1204 q 1066 1145 1066 1170 q 1015 985 1066 1073 q 1137 803 1097 903 q 1169 651 1169 708 l 1169 572 q 1023 231 1169 416 q 852 84 935 136 q 610 0 694 0 l 521 0 q 315 68 429 0 q 244 43 315 47 q 8 30 140 30 q 0 119 3 30 q 3 285 0 142 q 109 320 79 312 q 60 570 60 444 l 60 605 q 114 838 60 753 q 285 1039 143 908 q 480 1161 415 1138 q 700 1104 584 1104 q 819 1120 747 1104 q 814 1126 819 1126 l 779 1126 q 760 1137 764 1126 q 776 1172 765 1172 q 1055 1204 948 1203 m 830 1099 q 705 998 815 1056 q 515 960 612 960 q 355 1004 431 960 q 222 751 222 924 l 222 711 q 274 488 222 614 l 277 488 q 716 922 281 488 q 675 917 682 917 q 713 958 675 936 q 825 1053 795 1040 q 833 1093 833 1081 l 833 1099 l 830 1099 m 865 827 q 366 331 673 626 q 670 138 513 138 q 849 190 760 138 q 963 472 963 285 l 963 491 q 871 825 963 676 l 865 827 m 209 155 l 209 127 l 212 100 l 228 114 l 231 114 l 231 111 l 225 103 l 225 95 l 228 95 q 269 103 269 95 q 212 155 257 111 l 209 155 z "},"":{"ha":1453,"x_min":0,"x_max":1416,"o":"m 231 1204 q 439 1156 271 1204 q 488 1150 467 1150 l 510 1150 q 613 1185 559 1150 q 624 1175 622 1183 q 358 996 482 996 q 155 1053 307 996 q 103 1058 122 1058 l 92 1058 q 54 990 54 1015 q 65 963 65 966 q 38 941 65 956 q 0 990 8 941 q 73 1131 0 1061 q 231 1204 150 1204 m 716 1183 q 719 1169 716 1174 q 610 977 648 1120 q 578 385 594 977 l 578 374 q 616 193 585 207 q 716 149 671 149 q 892 209 794 149 q 998 380 998 288 q 1053 958 998 958 l 1120 1023 q 1020 1012 1058 1012 q 936 1023 1002 1012 q 811 963 919 1023 l 808 963 l 808 966 q 947 1126 853 1049 q 1050 1172 1005 1172 l 1221 1147 q 1313 1180 1272 1147 q 1324 1166 1318 1179 q 1280 1120 1324 1162 q 1226 933 1231 1008 q 1210 575 1210 876 l 1210 543 q 1115 171 1210 261 l 1112 165 l 1115 165 q 1280 212 1218 212 l 1297 212 q 1367 201 1308 212 q 1416 212 1395 203 l 1416 209 q 1256 30 1381 109 q 1183 16 1216 16 q 1009 33 1025 33 q 930 11 956 33 l 928 11 l 925 16 q 974 163 974 92 q 667 0 792 0 l 621 0 q 418 114 497 0 q 372 382 372 227 l 393 827 q 502 1023 422 947 q 711 1183 602 1124 l 716 1183 m 600 1413 q 613 1393 610 1407 q 699 1334 642 1352 q 787 1290 743 1329 q 870 1139 825 1251 q 869 1135 869 1137 l 867 1135 q 828 1172 828 1171 q 781 1187 816 1187 q 650 1255 709 1200 q 595 1378 595 1343 l 595 1410 q 598 1413 595 1413 l 600 1413 z "},"":{"ha":1453,"x_min":0,"x_max":1416,"o":"m 231 1204 q 439 1156 271 1204 q 488 1150 467 1150 l 510 1150 q 613 1185 559 1150 q 624 1175 622 1183 q 358 996 482 996 q 155 1053 307 996 q 103 1058 122 1058 l 92 1058 q 54 990 54 1015 q 65 963 65 966 q 38 941 65 956 q 0 990 8 941 q 73 1131 0 1061 q 231 1204 150 1204 m 716 1183 q 719 1169 716 1174 q 610 977 648 1120 q 578 385 594 977 l 578 374 q 616 193 585 207 q 716 149 671 149 q 892 209 794 149 q 998 380 998 288 q 1053 958 998 958 l 1120 1023 q 1020 1012 1058 1012 q 936 1023 1002 1012 q 811 963 919 1023 l 808 963 l 808 966 q 947 1126 853 1049 q 1050 1172 1005 1172 l 1221 1147 q 1313 1180 1272 1147 q 1324 1166 1318 1179 q 1280 1120 1324 1162 q 1226 933 1231 1008 q 1210 575 1210 876 l 1210 543 q 1115 171 1210 261 l 1112 165 l 1115 165 q 1280 212 1218 212 l 1297 212 q 1367 201 1308 212 q 1416 212 1395 203 l 1416 209 q 1256 30 1381 109 q 1183 16 1216 16 q 1009 33 1025 33 q 930 11 956 33 l 928 11 l 925 16 q 974 163 974 92 q 667 0 792 0 l 621 0 q 418 114 497 0 q 372 382 372 227 l 393 827 q 502 1023 422 947 q 711 1183 602 1124 l 716 1183 m 1035 1402 q 1038 1398 1038 1401 l 1038 1367 q 983 1243 1038 1332 q 852 1175 924 1188 q 805 1160 817 1175 q 766 1123 805 1159 l 764 1123 q 763 1128 764 1125 q 846 1278 808 1240 q 934 1322 890 1317 q 1020 1381 991 1341 q 1034 1402 1023 1395 l 1035 1402 z "},"":{"ha":1453,"x_min":0,"x_max":1416,"o":"m 231 1204 q 439 1156 271 1204 q 488 1150 467 1150 l 510 1150 q 613 1185 559 1150 q 624 1175 622 1183 q 358 996 482 996 q 155 1053 307 996 q 103 1058 122 1058 l 92 1058 q 54 990 54 1015 q 65 963 65 966 q 38 941 65 956 q 0 990 8 941 q 73 1131 0 1061 q 231 1204 150 1204 m 716 1183 q 719 1169 716 1174 q 610 977 648 1120 q 578 385 594 977 l 578 374 q 616 193 585 207 q 716 149 671 149 q 892 209 794 149 q 998 380 998 288 q 1053 958 998 958 l 1120 1023 q 1020 1012 1058 1012 q 936 1023 1002 1012 q 811 963 919 1023 l 808 963 l 808 966 q 947 1126 853 1049 q 1050 1172 1005 1172 l 1221 1147 q 1313 1180 1272 1147 q 1324 1166 1318 1179 q 1280 1120 1324 1162 q 1226 933 1231 1008 q 1210 575 1210 876 l 1210 543 q 1115 171 1210 261 l 1112 165 l 1115 165 q 1280 212 1218 212 l 1297 212 q 1367 201 1308 212 q 1416 212 1395 203 l 1416 209 q 1256 30 1381 109 q 1183 16 1216 16 q 1009 33 1025 33 q 930 11 956 33 l 928 11 l 925 16 q 974 163 974 92 q 667 0 792 0 l 621 0 q 418 114 497 0 q 372 382 372 227 l 393 827 q 502 1023 422 947 q 711 1183 602 1124 l 716 1183 m 795 1411 l 795 1412 q 798 1415 795 1414 q 805 1421 801 1419 l 806 1421 q 809 1419 809 1421 l 809 1404 q 811 1398 810 1401 q 882 1350 835 1364 q 954 1314 918 1345 q 1021 1190 985 1282 q 1021 1186 1021 1187 l 1019 1186 q 987 1217 987 1215 q 948 1229 977 1229 q 842 1284 889 1240 q 801 1361 811 1333 q 764 1291 790 1334 q 656 1236 715 1246 q 618 1223 628 1236 q 586 1193 618 1222 l 585 1193 q 583 1197 585 1194 q 651 1320 620 1289 q 724 1356 687 1352 q 794 1404 770 1371 q 795 1411 795 1408 z "},"":{"ha":1453,"x_min":0,"x_max":1416,"o":"m 231 1204 q 439 1156 271 1204 q 488 1150 467 1150 l 510 1150 q 613 1185 559 1150 q 624 1175 622 1183 q 358 996 482 996 q 155 1053 307 996 q 103 1058 122 1058 l 92 1058 q 54 990 54 1015 q 65 963 65 966 q 38 941 65 956 q 0 990 8 941 q 73 1131 0 1061 q 231 1204 150 1204 m 716 1183 q 719 1169 716 1174 q 610 977 648 1120 q 578 385 594 977 l 578 374 q 616 193 585 207 q 716 149 671 149 q 892 209 794 149 q 998 380 998 288 q 1053 958 998 958 l 1120 1023 q 1020 1012 1058 1012 q 936 1023 1002 1012 q 811 963 919 1023 l 808 963 l 808 966 q 947 1126 853 1049 q 1050 1172 1005 1172 l 1221 1147 q 1313 1180 1272 1147 q 1324 1166 1318 1179 q 1280 1120 1324 1162 q 1226 933 1231 1008 q 1210 575 1210 876 l 1210 543 q 1115 171 1210 261 l 1112 165 l 1115 165 q 1280 212 1218 212 l 1297 212 q 1367 201 1308 212 q 1416 212 1395 203 l 1416 209 q 1256 30 1381 109 q 1183 16 1216 16 q 1009 33 1025 33 q 930 11 956 33 l 928 11 l 925 16 q 974 163 974 92 q 667 0 792 0 l 621 0 q 418 114 497 0 q 372 382 372 227 l 393 827 q 502 1023 422 947 q 711 1183 602 1124 l 716 1183 m 467 1301 q 587 1409 557 1409 q 695 1306 658 1347 l 695 1293 q 584 1190 591 1192 l 581 1190 q 467 1301 538 1217 m 861 1309 l 972 1417 q 1091 1309 996 1417 l 1091 1306 q 977 1195 1050 1255 q 861 1309 907 1253 m 861 1309 l 972 1417 q 1091 1309 996 1417 l 1091 1306 q 977 1195 1050 1255 q 861 1309 907 1253 z "},"":{"ha":836,"x_min":0,"x_max":0,"o":""},"":{"ha":760,"x_min":0,"x_max":0,"o":""},"":{"ha":1440,"x_min":0,"x_max":1356,"o":"m 393 816 q 589 732 469 732 q 620 788 620 732 l 650 788 l 650 691 q 469 636 534 636 q 288 691 380 636 l 272 691 q 242 664 242 687 l 242 608 q 605 401 280 555 q 650 304 650 351 l 650 166 q 393 0 519 0 q 166 83 256 83 l 91 83 q 60 56 60 79 l 60 41 l 75 14 l 45 14 q 0 56 24 14 q 227 193 58 193 l 272 193 q 529 111 332 193 l 529 124 q 544 166 529 139 q 142 399 544 244 q 91 581 91 478 q 332 802 91 653 q 393 816 340 802 m 1099 808 q 1295 725 1175 725 q 1326 781 1326 725 l 1356 781 l 1356 684 q 1175 629 1240 629 q 994 684 1086 629 l 978 684 q 948 656 948 680 l 948 601 q 1311 393 986 548 q 1356 296 1356 343 l 1356 159 q 1099 -7 1225 -7 q 872 75 962 75 l 797 75 q 766 48 766 71 l 766 34 l 781 6 l 751 6 q 706 48 730 6 q 932 186 764 186 l 978 186 q 1235 103 1038 186 l 1235 117 q 1250 159 1235 132 q 848 391 1250 237 q 797 573 797 471 q 1038 794 797 646 q 1099 808 1046 794 z "},"":{"ha":625,"x_min":0,"x_max":643,"o":"m 290 803 q 572 627 372 762 l 578 627 l 578 621 q 537 575 578 604 q 534 567 537 572 q 540 190 537 285 q 613 152 582 153 l 637 152 l 643 155 l 643 130 q 551 57 591 69 q 488 5 511 5 q 366 95 476 5 q 258 22 340 95 q 214 0 226 0 l 184 0 q 95 57 174 0 q 0 98 35 89 l 0 103 q 33 146 0 118 q 43 323 41 205 l 35 640 q 190 722 68 661 q 288 803 262 777 l 290 803 m 206 632 l 212 190 q 307 133 294 133 q 372 168 366 168 l 372 534 q 239 637 311 593 l 231 646 l 206 632 m 73 1126 q 87 1105 84 1119 q 173 1046 116 1065 q 261 1002 217 1041 q 344 852 299 964 q 342 847 342 849 l 340 847 q 302 884 302 883 q 254 899 290 899 q 124 967 182 912 q 68 1090 68 1056 l 68 1122 q 72 1126 68 1125 l 73 1126 z "},"":{"ha":625,"x_min":0,"x_max":643,"o":"m 290 803 q 572 627 372 762 l 578 627 l 578 621 q 537 575 578 604 q 534 567 537 572 q 540 190 537 285 q 613 152 582 153 l 637 152 l 643 155 l 643 130 q 551 57 591 69 q 488 5 511 5 q 366 95 476 5 q 258 22 340 95 q 214 0 226 0 l 184 0 q 95 57 174 0 q 0 98 35 89 l 0 103 q 33 146 0 118 q 43 323 41 205 l 35 640 q 190 722 68 661 q 288 803 262 777 l 290 803 m 206 632 l 212 190 q 307 133 294 133 q 372 168 366 168 l 372 534 q 239 637 311 593 l 231 646 l 206 632 m 520 1138 q 524 1135 524 1137 l 524 1103 q 468 979 524 1068 q 338 911 410 924 q 290 897 302 911 q 252 859 290 895 l 250 859 q 248 864 250 861 q 331 1015 293 976 q 419 1059 375 1053 q 505 1118 476 1077 q 519 1138 508 1131 l 520 1138 z "},"":{"ha":625,"x_min":0,"x_max":643,"o":"m 290 803 q 572 627 372 762 l 578 627 l 578 621 q 537 575 578 604 q 534 567 537 572 q 540 190 537 285 q 613 152 582 153 l 637 152 l 643 155 l 643 130 q 551 57 591 69 q 488 5 511 5 q 366 95 476 5 q 258 22 340 95 q 214 0 226 0 l 184 0 q 95 57 174 0 q 0 98 35 89 l 0 103 q 33 146 0 118 q 43 323 41 205 l 35 640 q 190 722 68 661 q 288 803 262 777 l 290 803 m 206 632 l 212 190 q 307 133 294 133 q 372 168 366 168 l 372 534 q 239 637 311 593 l 231 646 l 206 632 m 283 1056 l 283 1058 q 286 1061 283 1061 q 295 1069 290 1066 l 296 1069 q 300 1066 300 1069 l 300 1048 q 302 1041 301 1044 q 388 982 331 1000 q 476 938 432 977 q 559 787 514 899 q 557 783 557 785 l 555 783 q 517 820 517 819 q 469 835 505 835 q 339 903 397 848 q 290 996 302 961 q 244 911 277 962 q 114 843 186 856 q 66 828 79 843 q 28 791 66 827 l 26 791 q 24 795 26 793 q 107 946 69 907 q 195 990 151 985 q 281 1049 252 1008 q 283 1056 282 1053 z "},"":{"ha":625,"x_min":0,"x_max":643,"o":"m 290 803 q 572 627 372 762 l 578 627 l 578 621 q 537 575 578 604 q 534 567 537 572 q 540 190 537 285 q 613 152 582 153 l 637 152 l 643 155 l 643 130 q 551 57 591 69 q 488 5 511 5 q 366 95 476 5 q 258 22 340 95 q 214 0 226 0 l 184 0 q 95 57 174 0 q 0 98 35 89 l 0 103 q 33 146 0 118 q 43 323 41 205 l 35 640 q 190 722 68 661 q 288 803 262 777 l 290 803 m 206 632 l 212 190 q 307 133 294 133 q 372 168 366 168 l 372 534 q 239 637 311 593 l 231 646 l 206 632 m 218 997 q 421 958 267 997 q 494 949 454 951 q 631 986 548 949 q 636 988 634 988 q 359 854 587 826 l 350 854 q 124 894 288 854 l 106 897 q 16 837 77 897 q 5 846 8 840 l 5 849 q 99 956 21 894 q 218 997 169 997 z "},"":{"ha":625,"x_min":0,"x_max":643,"o":"m 290 803 q 572 627 372 762 l 578 627 l 578 621 q 537 575 578 604 q 534 567 537 572 q 540 190 537 285 q 613 152 582 153 l 637 152 l 643 155 l 643 130 q 551 57 591 69 q 488 5 511 5 q 366 95 476 5 q 258 22 340 95 q 214 0 226 0 l 184 0 q 95 57 174 0 q 0 98 35 89 l 0 103 q 33 146 0 118 q 43 323 41 205 l 35 640 q 190 722 68 661 q 288 803 262 777 l 290 803 m 206 632 l 212 190 q 307 133 294 133 q 372 168 366 168 l 372 534 q 239 637 311 593 l 231 646 l 206 632 m 4 1013 q 123 1122 94 1122 q 232 1019 195 1059 l 232 1005 q 121 902 128 904 l 118 902 q 4 1013 75 929 m 397 1021 l 509 1130 q 628 1021 532 1130 l 628 1019 q 514 907 587 968 q 397 1021 444 966 m 397 1021 l 509 1130 q 628 1021 532 1130 l 628 1019 q 514 907 587 968 q 397 1021 444 966 z "},"":{"ha":625,"x_min":0,"x_max":643,"o":"m 290 803 q 572 627 372 762 l 578 627 l 578 621 q 537 575 578 604 q 534 567 537 572 q 540 190 537 285 q 613 152 582 153 l 637 152 l 643 155 l 643 130 q 551 57 591 69 q 488 5 511 5 q 366 95 476 5 q 258 22 340 95 q 214 0 226 0 l 184 0 q 95 57 174 0 q 0 98 35 89 l 0 103 q 33 146 0 118 q 43 323 41 205 l 35 640 q 190 722 68 661 q 288 803 262 777 l 290 803 m 206 632 l 212 190 q 307 133 294 133 q 372 168 366 168 l 372 534 q 239 637 311 593 l 231 646 l 206 632 z "},"":{"ha":986,"x_min":0,"x_max":898,"o":"m 675 825 l 678 825 q 841 654 722 784 q 898 589 898 607 q 678 393 808 495 q 597 312 597 321 q 594 214 597 275 q 616 168 594 184 l 637 168 l 643 171 q 670 144 645 144 q 703 127 670 141 q 787 179 722 130 q 822 193 806 193 l 827 193 q 865 171 850 193 l 865 168 q 635 0 758 71 q 529 49 534 49 q 488 22 509 22 q 366 111 476 22 q 252 33 339 111 q 203 14 218 14 l 195 14 q 106 65 177 14 q 0 114 22 113 l 0 119 q 33 163 0 134 q 43 339 41 222 l 35 656 q 190 738 68 677 q 288 819 262 793 l 290 819 q 464 713 305 819 q 675 825 473 713 m 206 648 l 212 206 q 307 149 294 149 q 372 184 366 184 l 372 551 q 239 654 311 610 l 231 662 l 206 648 m 594 662 l 594 572 q 600 420 594 525 q 724 532 722 526 l 597 662 l 594 662 z "},"":{"ha":614,"x_min":0,"x_max":0,"o":""},"":{"ha":583,"x_min":0,"x_max":526,"o":"m 309 825 q 526 600 473 650 l 526 586 q 271 361 441 500 q 225 317 271 358 l 228 298 q 222 222 228 284 q 271 155 222 167 q 334 127 295 142 q 431 187 342 127 q 461 193 442 193 q 496 168 476 193 q 266 0 391 73 l 87 81 q 19 100 20 96 l 16 114 q 54 152 16 119 q 65 388 65 275 q 49 632 65 632 q 0 662 0 637 l 309 825 m 225 665 q 222 618 222 633 l 222 602 q 231 420 222 507 q 353 526 342 521 l 353 529 q 225 665 310 577 m 73 1126 q 87 1105 84 1119 q 173 1046 116 1065 q 261 1002 217 1041 q 344 852 299 964 q 342 847 342 849 l 340 847 q 302 884 302 883 q 254 899 290 899 q 124 967 182 912 q 68 1090 68 1056 l 68 1122 q 72 1126 68 1125 l 73 1126 z "},"":{"ha":583,"x_min":0,"x_max":526,"o":"m 309 825 q 526 600 473 650 l 526 586 q 271 361 441 500 q 225 317 271 358 l 228 298 q 222 222 228 284 q 271 155 222 167 q 334 127 295 142 q 431 187 342 127 q 461 193 442 193 q 496 168 476 193 q 266 0 391 73 l 87 81 q 19 100 20 96 l 16 114 q 54 152 16 119 q 65 388 65 275 q 49 632 65 632 q 0 662 0 637 l 309 825 m 225 665 q 222 618 222 633 l 222 602 q 231 420 222 507 q 353 526 342 521 l 353 529 q 225 665 310 577 m 433 1134 q 436 1131 436 1133 l 436 1099 q 380 975 436 1064 q 250 907 322 920 q 203 892 215 907 q 164 855 203 891 l 162 855 q 161 860 162 857 q 243 1010 205 972 q 332 1055 288 1049 q 418 1114 389 1073 q 431 1134 420 1127 l 433 1134 z "},"":{"ha":583,"x_min":0,"x_max":559,"o":"m 309 825 q 526 600 473 650 l 526 586 q 271 361 441 500 q 225 317 271 358 l 228 298 q 222 222 228 284 q 271 155 222 167 q 334 127 295 142 q 431 187 342 127 q 461 193 442 193 q 496 168 476 193 q 266 0 391 73 l 87 81 q 19 100 20 96 l 16 114 q 54 152 16 119 q 65 388 65 275 q 49 632 65 632 q 0 662 0 637 l 309 825 m 225 665 q 222 618 222 633 l 222 602 q 231 420 222 507 q 353 526 342 521 l 353 529 q 225 665 310 577 m 283 1056 l 283 1058 q 286 1061 283 1061 q 295 1069 290 1066 l 296 1069 q 300 1066 300 1069 l 300 1048 q 302 1041 301 1044 q 388 982 331 1000 q 476 938 432 977 q 559 787 514 899 q 557 783 557 785 l 555 783 q 517 820 517 819 q 469 835 505 835 q 339 903 397 848 q 290 996 302 961 q 244 911 277 962 q 114 843 186 856 q 66 828 79 843 q 28 791 66 827 l 26 791 q 24 795 26 793 q 107 946 69 907 q 195 990 151 985 q 281 1049 252 1008 q 283 1056 282 1053 z "},"":{"ha":583,"x_min":0,"x_max":628,"o":"m 309 825 q 526 600 473 650 l 526 586 q 271 361 441 500 q 225 317 271 358 l 228 298 q 222 222 228 284 q 271 155 222 167 q 334 127 295 142 q 431 187 342 127 q 461 193 442 193 q 496 168 476 193 q 266 0 391 73 l 87 81 q 19 100 20 96 l 16 114 q 54 152 16 119 q 65 388 65 275 q 49 632 65 632 q 0 662 0 637 l 309 825 m 225 665 q 222 618 222 633 l 222 602 q 231 420 222 507 q 353 526 342 521 l 353 529 q 225 665 310 577 m 4 1013 q 123 1122 94 1122 q 232 1019 195 1059 l 232 1005 q 121 902 128 904 l 118 902 q 4 1013 75 929 m 397 1021 l 509 1130 q 628 1021 532 1130 l 628 1019 q 514 907 587 968 q 397 1021 444 966 z "},"":{"ha":349,"x_min":-131,"x_max":334,"o":"m 134 807 q 272 707 173 787 l 272 701 q 226 650 272 695 l 223 644 q 226 256 226 365 q 229 153 226 233 q 242 142 241 142 l 250 142 q 283 167 268 167 l 302 167 q 334 134 306 167 l 334 132 q 174 -1 263 58 l 169 -1 q 12 134 131 20 q 55 178 37 142 q 63 227 63 207 l 63 251 q 55 661 63 380 q 9 704 42 667 q 134 807 41 745 m -126 1162 q -113 1141 -115 1155 q -26 1082 -83 1101 q 62 1038 18 1077 q 144 888 100 1000 q 143 883 143 885 l 141 883 q 102 920 102 919 q 55 935 90 935 q -75 1003 -17 948 q -131 1126 -131 1092 l -131 1158 q -127 1162 -131 1161 l -126 1162 z "},"":{"ha":349,"x_min":9,"x_max":408,"o":"m 134 807 q 272 707 173 787 l 272 701 q 226 650 272 695 l 223 644 q 226 256 226 365 q 229 153 226 233 q 242 142 241 142 l 250 142 q 283 167 268 167 l 302 167 q 334 134 306 167 l 334 132 q 174 -1 263 58 l 169 -1 q 12 134 131 20 q 55 178 37 142 q 63 227 63 207 l 63 251 q 55 661 63 380 q 9 704 42 667 q 134 807 41 745 m 404 1138 q 408 1135 408 1137 l 408 1103 q 352 979 408 1068 q 222 911 294 924 q 174 897 186 911 q 136 859 174 895 l 134 859 q 132 864 134 861 q 215 1015 177 976 q 303 1059 259 1053 q 389 1118 360 1077 q 403 1138 392 1131 l 404 1138 z "},"":{"ha":349,"x_min":-123,"x_max":411,"o":"m 134 807 q 272 707 173 787 l 272 701 q 226 650 272 695 l 223 644 q 226 256 226 365 q 229 153 226 233 q 242 142 241 142 l 250 142 q 283 167 268 167 l 302 167 q 334 134 306 167 l 334 132 q 174 -1 263 58 l 169 -1 q 12 134 131 20 q 55 178 37 142 q 63 227 63 207 l 63 251 q 55 661 63 380 q 9 704 42 667 q 134 807 41 745 m 136 1060 l 136 1062 q 138 1065 136 1065 q 147 1074 142 1070 l 149 1074 q 152 1070 152 1073 l 152 1052 q 154 1045 153 1048 q 240 986 183 1004 q 328 942 284 981 q 411 791 366 903 q 410 787 410 789 l 408 787 q 369 824 369 823 q 321 839 357 839 q 191 907 250 852 q 142 1000 155 965 q 96 915 129 966 q -34 847 38 860 q -81 832 -69 847 q -120 795 -81 831 l -122 795 q -123 800 -122 797 q -41 950 -79 911 q 47 994 3 989 q 134 1053 104 1013 q 136 1060 134 1057 z "},"":{"ha":349,"x_min":-176,"x_max":448,"o":"m 134 807 q 272 707 173 787 l 272 701 q 226 650 272 695 l 223 644 q 226 256 226 365 q 229 153 226 233 q 242 142 241 142 l 250 142 q 283 167 268 167 l 302 167 q 334 134 306 167 l 334 132 q 174 -1 263 58 l 169 -1 q 12 134 131 20 q 55 178 37 142 q 63 227 63 207 l 63 251 q 55 661 63 380 q 9 704 42 667 q 134 807 41 745 m -176 1005 q -56 1114 -85 1114 q 52 1010 15 1051 l 52 997 q -59 894 -52 896 l -62 894 q -176 1005 -105 921 m 218 1013 l 329 1122 q 448 1013 353 1122 l 448 1010 q 334 899 407 960 q 218 1013 264 958 z "},"":{"ha":772,"x_min":0,"x_max":0,"o":""},"":{"ha":751,"x_min":0,"x_max":694,"o":"m 426 819 q 486 787 463 819 q 605 667 489 787 q 591 475 591 552 q 594 179 591 402 q 627 138 603 155 q 675 163 642 138 l 681 163 q 694 141 694 156 l 694 133 q 532 0 644 88 l 526 0 q 415 114 440 60 l 415 119 q 429 345 429 242 q 426 610 426 496 q 342 681 404 627 q 258 613 265 616 q 255 499 255 541 l 255 171 q 307 103 307 121 l 171 0 l 165 0 q 35 114 119 29 l 95 176 q 92 521 92 397 l 92 654 q 62 686 92 661 l 57 686 q 16 673 52 686 q 0 694 0 678 q 149 811 16 705 l 168 811 q 266 694 266 728 q 426 819 320 724 m 250 1053 q 453 1014 299 1053 q 526 1005 486 1007 q 663 1042 580 1005 q 668 1044 666 1044 q 391 911 619 882 l 382 911 q 156 950 320 911 l 138 954 q 47 893 109 954 q 37 902 40 896 l 37 905 q 131 1013 53 950 q 250 1053 201 1053 z "},"":{"ha":587,"x_min":0,"x_max":534,"o":"m 266 803 l 271 803 q 534 684 360 746 l 534 678 q 529 480 529 526 l 529 125 q 380 52 514 115 q 301 0 338 26 l 296 0 q 3 117 105 117 l 0 130 q 33 176 0 137 q 43 391 41 234 q 41 643 41 585 q 38 665 38 658 q 171 732 57 680 q 266 803 171 735 m 206 667 q 209 594 209 617 l 209 198 l 366 138 l 366 572 q 336 616 366 616 q 206 667 307 629 m 73 1126 q 87 1105 84 1119 q 173 1046 116 1065 q 261 1002 217 1041 q 344 852 299 964 q 342 847 342 849 l 340 847 q 302 884 302 883 q 254 899 290 899 q 124 967 182 912 q 68 1090 68 1056 l 68 1122 q 72 1126 68 1125 l 73 1126 z "},"":{"ha":587,"x_min":0,"x_max":548,"o":"m 266 803 l 271 803 q 534 684 360 746 l 534 678 q 529 480 529 526 l 529 125 q 380 52 514 115 q 301 0 338 26 l 296 0 q 3 117 105 117 l 0 130 q 33 176 0 137 q 43 391 41 234 q 41 643 41 585 q 38 665 38 658 q 171 732 57 680 q 266 803 171 735 m 206 667 q 209 594 209 617 l 209 198 l 366 138 l 366 572 q 336 616 366 616 q 206 667 307 629 m 545 1138 q 548 1135 548 1137 l 548 1103 q 492 979 548 1068 q 362 911 434 924 q 315 897 327 911 q 276 859 315 895 l 274 859 q 273 864 274 861 q 355 1015 317 976 q 444 1059 399 1053 q 530 1118 500 1077 q 543 1138 532 1131 l 545 1138 z "},"":{"ha":587,"x_min":0,"x_max":559,"o":"m 266 803 l 271 803 q 534 684 360 746 l 534 678 q 529 480 529 526 l 529 125 q 380 52 514 115 q 301 0 338 26 l 296 0 q 3 117 105 117 l 0 130 q 33 176 0 137 q 43 391 41 234 q 41 643 41 585 q 38 665 38 658 q 171 732 57 680 q 266 803 171 735 m 206 667 q 209 594 209 617 l 209 198 l 366 138 l 366 572 q 336 616 366 616 q 206 667 307 629 m 283 1056 l 283 1058 q 286 1061 283 1061 q 295 1069 290 1066 l 296 1069 q 300 1066 300 1069 l 300 1048 q 302 1041 301 1044 q 388 982 331 1000 q 476 938 432 977 q 559 787 514 899 q 557 783 557 785 l 555 783 q 517 820 517 819 q 469 835 505 835 q 339 903 397 848 q 290 996 302 961 q 244 911 277 962 q 114 843 186 856 q 66 828 79 843 q 28 791 66 827 l 26 791 q 24 795 26 793 q 107 946 69 907 q 195 990 151 985 q 281 1049 252 1008 q 283 1056 282 1053 z "},"":{"ha":587,"x_min":0,"x_max":636,"o":"m 266 803 l 271 803 q 534 684 360 746 l 534 678 q 529 480 529 526 l 529 125 q 380 52 514 115 q 301 0 338 26 l 296 0 q 3 117 105 117 l 0 130 q 33 176 0 137 q 43 391 41 234 q 41 643 41 585 q 38 665 38 658 q 171 732 57 680 q 266 803 171 735 m 206 667 q 209 594 209 617 l 209 198 l 366 138 l 366 572 q 336 616 366 616 q 206 667 307 629 m 218 997 q 421 958 267 997 q 494 949 454 951 q 631 986 548 949 q 636 988 634 988 q 359 854 587 826 l 350 854 q 124 894 288 854 l 106 897 q 16 837 77 897 q 5 846 8 840 l 5 849 q 99 956 21 894 q 218 997 169 997 z "},"":{"ha":587,"x_min":0,"x_max":628,"o":"m 266 803 l 271 803 q 534 684 360 746 l 534 678 q 529 480 529 526 l 529 125 q 380 52 514 115 q 301 0 338 26 l 296 0 q 3 117 105 117 l 0 130 q 33 176 0 137 q 43 391 41 234 q 41 643 41 585 q 38 665 38 658 q 171 732 57 680 q 266 803 171 735 m 206 667 q 209 594 209 617 l 209 198 l 366 138 l 366 572 q 336 616 366 616 q 206 667 307 629 m 4 1013 q 123 1122 94 1122 q 232 1019 195 1059 l 232 1005 q 121 902 128 904 l 118 902 q 4 1013 75 929 m 397 1021 l 509 1130 q 628 1021 532 1130 l 628 1019 q 514 907 587 968 q 397 1021 444 966 z "},"":{"ha":951,"x_min":4,"x_max":882,"o":"m 441 1064 q 539 972 471 1049 l 542 968 l 446 874 q 349 979 349 951 q 441 1064 422 1042 m 761 916 q 882 764 875 792 l 882 760 q 816 675 864 703 q 715 657 800 657 q 585 652 715 652 l 569 652 q 159 657 450 652 q 114 611 134 657 q 127 606 127 611 l 116 602 l 151 556 q 155 545 155 549 q 132 524 155 534 q 4 686 73 591 q 102 844 11 714 q 159 803 117 837 q 699 799 304 801 q 764 847 731 799 l 764 851 q 741 897 747 878 l 741 899 q 761 916 745 909 m 475 595 q 574 504 505 581 l 576 499 q 480 408 484 408 q 384 511 384 479 q 475 595 456 574 z "},"":{"ha":1107,"x_min":3,"x_max":1067,"o":"m 1059 1022 q 1067 981 1067 998 l 1067 943 q 1015 800 1067 882 l 782 553 l 782 135 q 633 62 767 125 q 551 7 591 37 q 332 113 405 98 q 218 -12 218 1 q 212 -44 212 -31 l 212 -55 l 215 -82 l 231 -68 l 234 -68 l 234 -71 l 229 -79 l 229 -87 l 231 -87 l 304 -79 q 326 -96 321 -79 q 261 -136 326 -136 q 12 -153 165 -153 q 3 -63 7 -153 q 6 102 3 -40 q 134 157 127 140 q 294 322 294 317 q 296 368 296 354 q 294 653 296 426 q 291 675 291 668 q 424 743 310 690 q 519 813 424 745 l 524 813 q 706 726 616 756 q 833 895 833 839 q 839 935 836 897 q 801 943 829 943 l 782 943 q 763 954 768 943 q 779 989 768 989 q 1059 1022 951 1021 m 459 677 q 462 604 462 627 l 462 485 q 600 623 469 489 l 459 677 m 462 238 l 462 208 l 619 149 l 619 390 q 462 238 578 354 z "},"":{"ha":718,"x_min":0,"x_max":673,"o":"m 155 808 q 293 692 193 791 l 244 637 q 236 190 236 250 q 290 149 273 149 l 296 149 q 415 231 308 149 q 423 632 420 418 q 372 692 414 646 q 491 803 468 792 l 496 803 q 570 749 519 803 q 632 692 608 719 l 581 629 l 581 618 q 578 182 581 473 q 621 136 578 170 q 656 144 650 144 l 662 144 q 673 133 666 144 l 673 119 q 532 5 615 60 q 518 0 532 0 q 391 117 484 4 l 380 125 q 212 0 321 91 l 206 0 l 76 98 q 30 127 30 117 q 60 160 30 141 q 76 198 76 191 l 81 637 q 52 656 62 656 l 41 656 q 19 637 31 652 q 0 662 8 637 q 54 719 0 682 q 152 808 62 734 l 155 808 m 110 1142 q 123 1122 121 1135 q 210 1063 153 1081 q 298 1019 254 1057 q 380 868 336 980 q 379 863 379 865 l 377 863 q 338 901 338 899 q 291 916 326 916 q 161 983 219 928 q 105 1107 105 1072 l 105 1139 q 109 1142 105 1141 l 110 1142 z "},"":{"ha":718,"x_min":0,"x_max":673,"o":"m 155 808 q 293 692 193 791 l 244 637 q 236 190 236 250 q 290 149 273 149 l 296 149 q 415 231 308 149 q 423 632 420 418 q 372 692 414 646 q 491 803 468 792 l 496 803 q 570 749 519 803 q 632 692 608 719 l 581 629 l 581 618 q 578 182 581 473 q 621 136 578 170 q 656 144 650 144 l 662 144 q 673 133 666 144 l 673 119 q 532 5 615 60 q 518 0 532 0 q 391 117 484 4 l 380 125 q 212 0 321 91 l 206 0 l 76 98 q 30 127 30 117 q 60 160 30 141 q 76 198 76 191 l 81 637 q 52 656 62 656 l 41 656 q 19 637 31 652 q 0 662 8 637 q 54 719 0 682 q 152 808 62 734 l 155 808 m 545 1138 q 548 1135 548 1137 l 548 1103 q 492 979 548 1068 q 362 911 434 924 q 315 897 327 911 q 276 859 315 895 l 274 859 q 273 864 274 861 q 355 1015 317 976 q 444 1059 399 1053 q 530 1118 500 1077 q 543 1138 532 1131 l 545 1138 z "},"":{"ha":718,"x_min":0,"x_max":673,"o":"m 155 808 q 293 692 193 791 l 244 637 q 236 190 236 250 q 290 149 273 149 l 296 149 q 415 231 308 149 q 423 632 420 418 q 372 692 414 646 q 491 803 468 792 l 496 803 q 570 749 519 803 q 632 692 608 719 l 581 629 l 581 618 q 578 182 581 473 q 621 136 578 170 q 656 144 650 144 l 662 144 q 673 133 666 144 l 673 119 q 532 5 615 60 q 518 0 532 0 q 391 117 484 4 l 380 125 q 212 0 321 91 l 206 0 l 76 98 q 30 127 30 117 q 60 160 30 141 q 76 198 76 191 l 81 637 q 52 656 62 656 l 41 656 q 19 637 31 652 q 0 662 8 637 q 54 719 0 682 q 152 808 62 734 l 155 808 m 323 1116 l 323 1118 q 326 1121 323 1120 q 334 1129 329 1126 l 336 1129 q 339 1126 339 1128 l 339 1107 q 341 1101 340 1104 q 427 1042 370 1060 q 515 998 471 1036 q 598 847 553 959 q 597 842 597 844 l 595 842 q 556 880 556 878 q 509 895 544 895 q 378 962 437 907 q 330 1055 342 1021 q 283 970 316 1022 q 153 903 225 916 q 106 888 118 903 q 67 850 106 886 l 65 850 q 64 855 65 852 q 146 1006 109 967 q 235 1050 191 1044 q 321 1109 292 1068 q 323 1116 321 1112 z "},"":{"ha":718,"x_min":0,"x_max":673,"o":"m 155 808 q 293 692 193 791 l 244 637 q 236 190 236 250 q 290 149 273 149 l 296 149 q 415 231 308 149 q 423 632 420 418 q 372 692 414 646 q 491 803 468 792 l 496 803 q 570 749 519 803 q 632 692 608 719 l 581 629 l 581 618 q 578 182 581 473 q 621 136 578 170 q 656 144 650 144 l 662 144 q 673 133 666 144 l 673 119 q 532 5 615 60 q 518 0 532 0 q 391 117 484 4 l 380 125 q 212 0 321 91 l 206 0 l 76 98 q 30 127 30 117 q 60 160 30 141 q 76 198 76 191 l 81 637 q 52 656 62 656 l 41 656 q 19 637 31 652 q 0 662 8 637 q 54 719 0 682 q 152 808 62 734 l 155 808 m 4 1013 q 123 1122 94 1122 q 232 1019 195 1059 l 232 1005 q 121 902 128 904 l 118 902 q 4 1013 75 929 m 397 1021 l 509 1130 q 628 1021 532 1130 l 628 1019 q 514 907 587 968 q 397 1021 444 966 z "},"":{"ha":589,"x_min":0,"x_max":0,"o":""},"":{"ha":685,"x_min":0,"x_max":0,"o":""},"":{"ha":589,"x_min":0,"x_max":0,"o":""},"":{"ha":349,"x_min":0,"x_max":0,"o":""},"":{"ha":694,"x_min":0,"x_max":0,"o":""},"":{"ha":694,"x_min":0,"x_max":0,"o":""},"":{"ha":694,"x_min":0,"x_max":0,"o":""},"":{"ha":694,"x_min":0,"x_max":0,"o":""},"":{"ha":694,"x_min":0,"x_max":0,"o":""},"":{"ha":694,"x_min":0,"x_max":0,"o":""},"":{"ha":694,"x_min":0,"x_max":0,"o":""},"":{"ha":694,"x_min":0,"x_max":0,"o":""},"":{"ha":694,"x_min":0,"x_max":0,"o":""},"":{"ha":751,"x_min":0,"x_max":0,"o":""},"":{"ha":1389,"x_min":0,"x_max":0,"o":""},"":{"ha":340,"x_min":53,"x_max":251,"o":"m 202 1158 q 221 1139 221 1158 q 208 1074 208 1095 q 243 977 208 1057 q 251 936 251 955 l 251 917 q 167 808 251 882 q 110 779 123 779 l 77 779 q 69 795 69 781 q 85 846 85 837 l 85 857 q 53 960 85 877 l 53 1001 q 191 1158 53 1097 l 202 1158 z "},"":{"ha":340,"x_min":53,"x_max":251,"o":"m 202 1158 q 221 1139 221 1158 q 208 1074 208 1095 q 243 977 208 1057 q 251 936 251 955 l 251 917 q 167 808 251 882 q 110 779 123 779 l 77 779 q 69 795 69 781 q 85 846 85 837 l 85 857 q 53 960 85 877 l 53 1001 q 191 1158 53 1097 l 202 1158 z "},"":{"ha":378,"x_min":0,"x_max":0,"o":""},"":{"ha":543,"x_min":49,"x_max":487,"o":"m 198 1150 q 217 1131 217 1150 q 203 1066 203 1086 q 239 968 203 1049 q 247 928 247 947 l 247 909 q 163 800 247 873 q 106 770 119 770 l 73 770 q 65 787 65 773 q 81 838 81 829 l 81 849 q 49 952 81 869 l 49 993 q 187 1150 49 1089 l 198 1150 m 438 1194 q 457 1175 457 1194 q 444 1110 444 1131 q 479 1013 444 1093 q 487 972 487 991 l 487 953 q 403 844 487 918 q 346 814 359 814 l 313 814 q 305 831 305 817 q 321 882 321 873 l 321 893 q 289 996 321 913 l 289 1037 q 427 1194 289 1133 l 438 1194 z "},"":{"ha":543,"x_min":49,"x_max":487,"o":"m 198 1150 q 217 1131 217 1150 q 203 1066 203 1086 q 239 968 203 1049 q 247 928 247 947 l 247 909 q 163 800 247 873 q 106 770 119 770 l 73 770 q 65 787 65 773 q 81 838 81 829 l 81 849 q 49 952 81 869 l 49 993 q 187 1150 49 1089 l 198 1150 m 438 1194 q 457 1175 457 1194 q 444 1110 444 1131 q 479 1013 444 1093 q 487 972 487 991 l 487 953 q 403 844 487 918 q 346 814 359 814 l 313 814 q 305 831 305 817 q 321 882 321 873 l 321 893 q 289 996 321 913 l 289 1037 q 427 1194 289 1133 l 438 1194 z "},"":{"ha":617,"x_min":0,"x_max":0,"o":""},"":{"ha":688,"x_min":0,"x_max":0,"o":""},"":{"ha":688,"x_min":0,"x_max":0,"o":""},"":{"ha":694,"x_min":0,"x_max":0,"o":""},"":{"ha":1389,"x_min":0,"x_max":0,"o":""},"":{"ha":428,"x_min":0,"x_max":0,"o":""},"":{"ha":428,"x_min":0,"x_max":0,"o":""},"":{"ha":232,"x_min":0,"x_max":0,"o":""},"":{"ha":688,"x_min":0,"x_max":0,"o":""},"":{"ha":688,"x_min":0,"x_max":0,"o":""},"":{"ha":1375,"x_min":0,"x_max":0,"o":""},"":{"ha":1286,"x_min":0,"x_max":1218,"o":"m 814 1194 l 844 1194 q 1004 1134 881 1194 q 1074 1120 1053 1120 l 1101 1120 q 1142 1153 1116 1120 l 1153 1153 q 1161 1145 1157 1153 q 1044 1006 1131 1060 q 914 968 973 968 q 719 1036 860 968 q 646 1053 678 1053 q 453 865 530 1053 q 420 694 420 772 q 616 665 568 665 q 730 686 663 665 q 646 583 719 650 q 467 505 536 505 l 442 505 q 458 464 448 464 q 594 445 514 450 q 708 467 642 445 q 532 307 661 370 q 773 152 640 152 q 955 282 859 152 q 1109 374 1034 374 q 1218 336 1170 374 l 1218 334 q 1128 136 1161 184 l 1120 136 q 1031 171 1104 136 q 1009 174 1021 174 l 1004 174 q 903 109 977 174 q 646 0 760 0 l 640 0 q 323 201 470 0 q 255 345 283 269 q 176 363 203 363 l 157 363 q 52 260 96 363 l 52 228 q 24 203 52 208 q 0 239 0 215 q 127 434 0 324 q 228 480 197 475 l 222 567 q 225 581 225 572 l 206 583 l 179 583 q 73 480 117 583 l 73 448 q 46 423 73 427 q 22 458 22 435 q 149 654 22 544 q 241 700 180 674 q 385 971 261 824 q 665 1158 498 1078 q 814 1194 750 1194 z "},"":{"ha":1540,"x_min":0,"x_max":0,"o":""},"":{"ha":948,"x_min":77,"x_max":914,"o":"m 473 1305 l 477 1303 q 428 1246 467 1273 q 301 1222 383 1222 q 286 1205 301 1219 q 271 1097 271 1179 l 271 1050 q 241 956 271 989 l 257 957 l 298 957 q 333 964 311 957 l 333 962 q 254 898 304 916 l 250 898 q 193 901 208 901 q 174 898 184 901 l 174 899 q 198 981 198 917 q 201 1016 198 987 l 201 1084 q 256 1221 201 1190 q 269 1225 266 1225 l 269 1227 q 176 1236 205 1236 l 155 1236 q 94 1204 109 1236 q 83 1181 94 1181 l 81 1181 q 77 1195 77 1183 l 77 1204 q 138 1281 77 1234 q 207 1297 173 1297 q 380 1281 221 1297 q 470 1305 429 1281 l 473 1305 m 777 1283 l 787 1283 q 850 1242 812 1283 q 867 1151 867 1217 l 867 1146 q 863 1011 863 1025 l 863 1008 q 845 954 863 979 l 850 954 q 890 952 870 954 l 912 956 l 914 952 q 838 901 861 901 l 828 899 q 783 901 797 901 l 767 899 l 764 905 l 764 906 q 794 962 794 930 q 796 1068 794 1010 q 794 1185 794 1132 q 734 1230 765 1230 q 698 1190 698 1219 l 698 1185 q 703 1061 698 1161 q 686 970 703 1015 q 673 952 677 962 l 681 954 l 698 954 q 741 960 722 954 q 744 957 741 957 q 680 905 730 937 q 656 899 663 899 q 604 901 625 901 l 602 905 l 602 909 q 629 956 625 939 q 632 1158 632 1136 q 587 1222 632 1208 q 565 1230 576 1230 l 562 1230 q 543 1180 543 1230 l 543 1077 q 522 952 543 960 q 439 899 475 908 l 436 899 q 386 911 392 911 l 384 911 q 357 889 376 911 q 350 888 354 888 l 347 888 l 343 889 q 393 950 355 925 q 426 967 414 967 l 435 967 l 473 960 l 473 962 q 475 987 473 970 q 473 1118 473 1083 q 588 1276 473 1248 q 615 1281 600 1281 l 617 1281 q 688 1237 643 1280 q 777 1283 747 1283 z "},"":{"ha":688,"x_min":0,"x_max":0,"o":""},"":{"ha":733,"x_min":0,"x_max":0,"o":""},"":{"ha":1027,"x_min":0,"x_max":0,"o":""},"":{"ha":818,"x_min":0,"x_max":0,"o":""},"":{"ha":688,"x_min":0,"x_max":0,"o":""},"":{"ha":688,"x_min":0,"x_max":0,"o":""},"":{"ha":688,"x_min":0,"x_max":0,"o":""},"":{"ha":451,"x_min":0,"x_max":0,"o":""},"":{"ha":688,"x_min":0,"x_max":0,"o":""},"":{"ha":688,"x_min":0,"x_max":0,"o":""},"":{"ha":688,"x_min":0,"x_max":0,"o":""},"":{"ha":728,"x_min":0,"x_max":0,"o":""},"":{"ha":733,"x_min":0,"x_max":0,"o":""},"":{"ha":1698,"x_min":0,"x_max":1633,"o":"m 420 1161 q 640 1104 524 1104 q 779 1126 697 1104 q 635 993 779 1065 q 456 960 541 960 q 296 1004 372 960 q 163 751 163 924 l 163 711 q 293 347 163 549 q 610 138 448 138 q 789 190 701 138 q 903 472 903 285 l 903 491 q 787 857 903 703 q 667 922 716 922 q 616 917 658 922 q 659 963 616 935 q 808 1066 759 1065 l 825 1066 q 1001 936 887 1066 q 1085 1031 1019 969 q 1289 1145 1185 1116 l 1291 1145 q 1478 1090 1324 1145 q 1508 1088 1497 1088 l 1527 1088 q 1609 1120 1566 1088 l 1633 1120 l 1633 1107 q 1514 979 1632 1086 q 1362 925 1436 925 q 1223 966 1331 925 q 1180 974 1206 974 l 1158 974 q 1142 955 1155 974 q 1128 722 1128 793 l 1128 689 q 1131 643 1128 675 q 1256 724 1206 724 q 1373 670 1286 724 q 1400 662 1387 662 l 1416 662 q 1506 708 1432 662 q 1516 700 1516 704 l 1516 697 q 1394 534 1495 631 q 1294 494 1332 494 l 1286 494 q 1150 556 1247 494 q 1131 559 1141 559 q 1093 263 1112 263 q 1058 184 1092 241 q 1194 236 1118 236 q 1400 206 1221 236 q 1435 203 1417 203 q 1557 244 1503 203 l 1557 241 q 1424 71 1522 166 q 1305 16 1354 21 q 1099 57 1113 57 q 1061 60 1090 60 l 1053 60 q 941 35 1003 60 q 901 24 909 24 l 895 24 q 876 35 881 24 q 901 76 876 45 q 914 179 914 142 q 621 11 762 47 q 551 0 582 0 l 461 0 q 163 144 315 0 q 0 570 0 321 l 0 605 q 54 838 0 753 q 225 1039 83 908 q 420 1161 355 1138 z "},"":{"ha":1020,"x_min":0,"x_max":933,"o":"m 711 825 l 713 825 q 876 654 758 784 q 933 589 933 607 q 713 393 843 495 q 632 312 633 321 q 629 214 632 275 q 705 144 629 163 q 738 127 705 141 q 822 179 757 130 q 857 193 841 193 l 863 193 q 901 171 886 193 l 901 168 q 670 0 793 71 q 458 92 534 68 q 298 0 378 59 q 14 117 113 117 q 0 133 0 119 q 33 179 0 140 q 43 393 41 237 q 41 646 41 587 q 38 667 38 661 q 171 735 57 683 q 266 806 171 738 l 271 806 q 483 705 363 750 l 488 705 l 711 825 m 206 670 q 209 597 209 620 l 209 201 l 366 141 l 366 575 q 336 618 366 618 q 206 670 307 632 m 629 662 l 629 572 q 635 420 629 525 q 760 532 757 526 l 632 662 l 629 662 z "},"":{"ha":1352,"x_min":0,"x_max":1297,"o":"m 774 1246 l 777 1246 q 785 1194 785 1219 q 697 973 785 1090 q 185 210 575 776 q 163 150 163 179 l 163 139 l 165 117 l 168 117 q 176 130 172 117 l 181 130 l 181 128 q 176 115 176 121 l 176 113 l 238 139 l 250 139 l 252 128 q 218 88 252 98 q 14 0 149 51 l 11 0 q 0 212 0 74 q 102 302 92 273 q 593 1030 562 977 q 609 1107 609 1077 l 609 1121 l 602 1121 l 558 1109 q 551 1112 554 1112 l 551 1121 q 585 1160 551 1151 q 774 1246 753 1246 m 165 1222 q 273 1156 212 1216 q 333 1004 333 1090 l 333 988 q 214 768 333 871 q 168 741 178 741 l 163 741 q 35 836 100 756 q 0 958 0 890 l 0 975 q 161 1220 0 1107 l 165 1222 m 108 1149 q 62 1017 62 1082 l 62 1000 q 155 843 62 910 q 225 812 196 816 q 271 944 271 864 q 113 1149 271 1096 l 108 1149 m 715 512 q 823 446 762 506 q 882 294 882 380 l 882 278 q 764 58 882 161 q 717 31 728 31 l 713 31 q 585 125 650 45 q 549 247 549 180 l 549 264 q 710 509 549 396 l 715 512 m 657 439 q 611 307 611 371 l 611 289 q 704 132 611 200 q 774 102 745 105 q 821 234 821 154 q 662 439 821 385 l 657 439 m 1130 504 q 1238 437 1177 498 q 1297 286 1297 372 l 1297 270 q 1179 50 1297 153 q 1132 23 1143 23 l 1128 23 q 1000 117 1065 37 q 964 239 964 172 l 964 256 q 1125 501 964 388 l 1130 504 m 1072 431 q 1026 298 1026 363 l 1026 281 q 1119 124 1026 192 q 1190 94 1160 97 q 1236 226 1236 146 q 1077 431 1236 377 l 1072 431 z "}}}
